{
  "accessors": [
    {
      "bufferView": 2,
      "componentType": 5126,
      "count": 4,
      "max": [
        1.0,
        1.0,
        0.0
      ],
      "min": [
        -1.0,
        -1.0,
        0.0
      ],
      "type": "VEC3"
    },
    {
      "bufferView": 2,
      "byteOffset": 48,
      "componentType": 5126,
      "count": 4,
      "max": [
        0.0,
        0.0,
        1.0
      ],
      "min": [
        0.0,
        0.0,
        1.0
      ],
      "type": "VEC3"
    },
    {
      "bufferView": 1,
      "componentType": 5126,
      "count": 4,
      "max": [
        0.9998999834060669,
        0.9998999834060669
      ],
      "min": [
        9.999999747378752e-05,
        9.999999747378752e-05
      ],
      "type": "VEC2"
    },
    {
      "bufferView": 0,
      "componentType": 5125,
      "count": 6,
      "type": "SCALAR"
    },
    {
      "bufferView": 2,
      "byteOffset": 96,
      "componentType": 5126,
      "count": 1082,
      "max": [
        4.379950046539307,
        4.8412299156188965,
        0.30629000067710876
      ],
      "min": [
        -4.5972900390625,
        -4.957149982452393,
        -0.08122000098228455
      ],
      "type": "VEC3"
    },
    {
      "bufferView": 2,
      "byteOffset": 13080,
      "componentType": 5126,
      "count": 1082,
      "max": [
        0.9995304942131042,
        0.9848232865333557,
        1.0
      ],
      "min": [
        -0.9997816681861877,
        -0.9924139976501465,
        -1.0
      ],
      "type": "VEC3"
    },
    {
      "bufferView": 0,
      "byteOffset": 24,
      "componentType": 5125,
      "count": 1716,
      "type": "SCALAR"
    },
    {
      "bufferView": 2,
      "byteOffset": 26064,
      "componentType": 5126,
      "count": 272,
      "max": [
        3.1869099140167236,
        3.7693099975585938,
        0.30629000067710876
      ],
      "min": [
        -3.398159980773926,
        -3.8803699016571045,
        -0.08122000098228455
      ],
      "type": "VEC3"
    },
    {
      "bufferView": 2,
      "byteOffset": 29328,
      "componentType": 5126,
      "count": 272,
      "max": [
        0.783279538154602,
        0.9628210067749023,
        1.0
      ],
      "min": [
        -0.7603102922439575,
        -0.9160605072975159,
        -1.0
      ],
      "type": "VEC3"
    },
    {
      "bufferView": 0,
      "byteOffset": 6888,
      "componentType": 5125,
      "count": 528,
      "type": "SCALAR"
    },
    {
      "bufferView": 2,
      "byteOffset": 32592,
      "componentType": 5126,
      "count": 2976,
      "max": [
        66.75316619873047,
        1.6381700038909912,
        1.5548700094223022
      ],
      "min": [
        -66.76534271240234,
        -1.9834500551223755,
        -1.473230004310608
      ],
      "type": "VEC3"
    },
    {
      "bufferView": 2,
      "byteOffset": 68304,
      "componentType": 5126,
      "count": 2976,
      "max": [
        1.0,
        1.0,
        1.0
      ],
      "min": [
        -1.0,
        -1.0,
        -1.0
      ],
      "type": "VEC3"
    },
    {
      "bufferView": 0,
      "byteOffset": 9000,
      "componentType": 5125,
      "count": 5352,
      "type": "SCALAR"
    },
    {
      "bufferView": 2,
      "byteOffset": 104016,
      "componentType": 5126,
      "count": 4134,
      "max": [
        70.57054138183594,
        2.557620048522949,
        1.280400037765503
      ],
      "min": [
        -70.57862091064453,
        -1.784190058708191,
        -1.185629963874817
      ],
      "type": "VEC3"
    },
    {
      "bufferView": 2,
      "byteOffset": 153624,
      "componentType": 5126,
      "count": 4134,
      "max": [
        1.0,
        1.0,
        1.0
      ],
      "min": [
        -1.0,
        -1.0,
        -1.0
      ],
      "type": "VEC3"
    },
    {
      "bufferView": 0,
      "byteOffset": 30408,
      "componentType": 5125,
      "count": 7293,
      "type": "SCALAR"
    },
    {
      "bufferView": 2,
      "byteOffset": 203232,
      "componentType": 5126,
      "count": 29812,
      "max": [
        1.9189900159835815,
        13.213600158691406,
        3.3655099868774414
      ],
      "min": [
        -1.9189900159835815,
        -4.8160200119018555,
        -1.422029972076416
      ],
      "type": "VEC3"
    },
    {
      "bufferView": 2,
      "byteOffset": 560976,
      "componentType": 5126,
      "count": 29812,
      "max": [
        1.0,
        1.0,
        1.0
      ],
      "min": [
        -1.0,
        -1.0,
        -1.0
      ],
      "type": "VEC3"
    },
    {
      "bufferView": 1,
      "byteOffset": 32,
      "componentType": 5126,
      "count": 29812,
      "max": [
        0.8854100108146667,
        0.6364499926567078
      ],
      "min": [
        0.07428000122308731,
        0.022040000185370445
      ],
      "type": "VEC2"
    },
    {
      "bufferView": 0,
      "byteOffset": 59580,
      "componentType": 5125,
      "count": 169776,
      "type": "SCALAR"
    },
    {
      "bufferView": 2,
      "byteOffset": 918720,
      "componentType": 5126,
      "count": 744,
      "max": [
        1.2552200555801392,
        0.8170400261878967,
        1.1223700046539307
      ],
      "min": [
        -1.2552200555801392,
        -4.711719989776611,
        -1.0374900102615356
      ],
      "type": "VEC3"
    },
    {
      "bufferView": 2,
      "byteOffset": 927648,
      "componentType": 5126,
      "count": 744,
      "max": [
        0.9999999403953552,
        0.5903122425079346,
        0.8126311302185059
      ],
      "min": [
        -0.9999999403953552,
        -0.7184830904006958,
        -0.977683424949646
      ],
      "type": "VEC3"
    },
    {
      "bufferView": 1,
      "byteOffset": 238528,
      "componentType": 5126,
      "count": 744,
      "max": [
        0.34178000688552856,
        0.5382400155067444
      ],
      "min": [
        0.09972000122070313,
        0.4436799883842468
      ],
      "type": "VEC2"
    },
    {
      "bufferView": 0,
      "byteOffset": 738684,
      "componentType": 5125,
      "count": 3408,
      "type": "SCALAR"
    },
    {
      "bufferView": 2,
      "byteOffset": 936576,
      "componentType": 5126,
      "count": 11884,
      "max": [
        1.9976500272750854,
        12.164649963378906,
        3.2887699604034424
      ],
      "min": [
        -1.9976500272750854,
        -2.416069984436035,
        -2.127530097961426
      ],
      "type": "VEC3"
    },
    {
      "bufferView": 2,
      "byteOffset": 1079184,
      "componentType": 5126,
      "count": 11884,
      "max": [
        1.0,
        1.0,
        0.9999995827674866
      ],
      "min": [
        -1.0,
        -1.0,
        -1.0
      ],
      "type": "VEC3"
    },
    {
      "bufferView": 1,
      "byteOffset": 244480,
      "componentType": 5126,
      "count": 11884,
      "max": [
        0.8386099934577942,
        0.6364499926567078
      ],
      "min": [
        0.19862000644207,
        0.3957599997520447
      ],
      "type": "VEC2"
    },
    {
      "bufferView": 0,
      "byteOffset": 752316,
      "componentType": 5125,
      "count": 57888,
      "type": "SCALAR"
    },
    {
      "bufferView": 3,
      "componentType": 5126,
      "count": 160,
      "max": [
        6.666669845581055
      ],
      "min": [
        0.041669998317956924
      ],
      "type": "SCALAR"
    },
    {
      "bufferView": 4,
      "componentType": 5126,
      "count": 160,
      "max": [
        0.0,
        78.13355255126953,
        46.42329025268555
      ],
      "min": [
        0.0,
        2.5394699573516846,
        2.6808300018310547
      ],
      "type": "VEC3"
    },
    {
      "bufferView": 3,
      "byteOffset": 640,
      "componentType": 5126,
      "count": 102,
      "max": [
        6.666669845581055
      ],
      "min": [
        0.041669998317956924
      ],
      "type": "SCALAR"
    },
    {
      "bufferView": 5,
      "componentType": 5126,
      "count": 102,
      "max": [
        0.0,
        0.0,
        0.0,
        1.0
      ],
      "min": [
        -0.3157297372817993,
        0.0,
        0.0,
        0.9488492012023926
      ],
      "type": "VEC4"
    },
    {
      "bufferView": 3,
      "byteOffset": 1048,
      "componentType": 5126,
      "count": 160,
      "max": [
        6.666669845581055
      ],
      "min": [
        0.041669998317956924
      ],
      "type": "SCALAR"
    },
    {
      "bufferView": 5,
      "byteOffset": 1632,
      "componentType": 5126,
      "count": 160,
      "max": [
        0.9999759197235107,
        0.0,
        0.0,
        1.0
      ],
      "min": [
        -0.976969301700592,
        0.0,
        0.0,
        0.006929971743375063
      ],
      "type": "VEC4"
    },
    {
      "bufferView": 3,
      "byteOffset": 1688,
      "componentType": 5126,
      "count": 160,
      "max": [
        6.666669845581055
      ],
      "min": [
        0.041669998317956924
      ],
      "type": "SCALAR"
    },
    {
      "bufferView": 4,
      "byteOffset": 1920,
      "componentType": 5126,
      "count": 160,
      "max": [
        0.07240000367164612,
        0.14624999463558197,
        0.761680006980896
      ],
      "min": [
        0.07240000367164612,
        0.051830001175403595,
        0.2699500024318695
      ],
      "type": "VEC3"
    },
    {
      "bufferView": 3,
      "byteOffset": 2328,
      "componentType": 5126,
      "count": 1,
      "max": [
        0.041669998317956924
      ],
      "min": [
        0.041669998317956924
      ],
      "type": "SCALAR"
    },
    {
      "bufferView": 4,
      "byteOffset": 3840,
      "componentType": 5126,
      "count": 1,
      "max": [
        0.0,
        0.0,
        0.0
      ],
      "min": [
        0.0,
        0.0,
        0.0
      ],
      "type": "VEC3"
    },
    {
      "bufferView": 3,
      "byteOffset": 2332,
      "componentType": 5126,
      "count": 2,
      "max": [
        6.666669845581055
      ],
      "min": [
        0.041669998317956924
      ],
      "type": "SCALAR"
    },
    {
      "bufferView": 5,
      "byteOffset": 4192,
      "componentType": 5126,
      "count": 2,
      "max": [
        -0.042609963566064835,
        0.5117795467376709,
        -0.3685695230960846,
        0.7748693823814392
      ],
      "min": [
        -0.042619943618774414,
        0.5117793083190918,
        -0.3685697019100189,
        0.7748689651489258
      ],
      "type": "VEC4"
    },
    {
      "bufferView": 3,
      "byteOffset": 2340,
      "componentType": 5126,
      "count": 160,
      "max": [
        6.666669845581055
      ],
      "min": [
        0.041669998317956924
      ],
      "type": "SCALAR"
    },
    {
      "bufferView": 5,
      "byteOffset": 4224,
      "componentType": 5126,
      "count": 160,
      "max": [
        0.0,
        0.0,
        0.9999749660491943,
        1.0
      ],
      "min": [
        0.0,
        0.0,
        -0.9757675528526306,
        0.007069964427500963
      ],
      "type": "VEC4"
    },
    {
      "bufferView": 3,
      "byteOffset": 2980,
      "componentType": 5126,
      "count": 160,
      "max": [
        6.666669845581055
      ],
      "min": [
        0.041669998317956924
      ],
      "type": "SCALAR"
    },
    {
      "bufferView": 4,
      "byteOffset": 3852,
      "componentType": 5126,
      "count": 160,
      "max": [
        4.719429969787598,
        0.4679799973964691,
        0.14176000654697418
      ],
      "min": [
        1.6305700540542603,
        0.16167999804019928,
        0.14176000654697418
      ],
      "type": "VEC3"
    }
  ],
  "animations": [
    {
      "channels": [
        {
          "sampler": 0,
          "target": {
            "node": 8,
            "path": "translation"
          }
        },
        {
          "sampler": 1,
          "target": {
            "node": 8,
            "path": "rotation"
          }
        },
        {
          "sampler": 2,
          "target": {
            "node": 9,
            "path": "rotation"
          }
        },
        {
          "sampler": 3,
          "target": {
            "node": 9,
            "path": "scale"
          }
        },
        {
          "sampler": 4,
          "target": {
            "node": 10,
            "path": "translation"
          }
        },
        {
          "sampler": 5,
          "target": {
            "node": 10,
            "path": "rotation"
          }
        },
        {
          "sampler": 6,
          "target": {
            "node": 13,
            "path": "rotation"
          }
        },
        {
          "sampler": 7,
          "target": {
            "node": 13,
            "path": "scale"
          }
        }
      ],
      "name": "Take 01",
      "samplers": [
        {
          "input": 28,
          "interpolation": "LINEAR",
          "output": 29
        },
        {
          "input": 30,
          "interpolation": "LINEAR",
          "output": 31
        },
        {
          "input": 32,
          "interpolation": "LINEAR",
          "output": 33
        },
        {
          "input": 34,
          "interpolation": "LINEAR",
          "output": 35
        },
        {
          "input": 36,
          "interpolation": "LINEAR",
          "output": 37
        },
        {
          "input": 38,
          "interpolation": "LINEAR",
          "output": 39
        },
        {
          "input": 40,
          "interpolation": "LINEAR",
          "output": 41
        },
        {
          "input": 42,
          "interpolation": "LINEAR",
          "output": 43
        }
      ]
    }
  ],
  "asset": {
    "extras": {
      "author": "nikhilmohan (https://sketchfab.com/nikhilmohan.1)",
      "license": "CC-BY-4.0 (http://creativecommons.org/licenses/by/4.0/)",
      "source": "https://sketchfab.com/3d-models/rigged-helicopter-2711afa3a61b4335b2e0c2d291187961",
      "title": "Rigged Helicopter"
    },
    "generator": "Sketchfab-12.67.0",
    "version": "2.0"
  },
  "bufferViews": [
    {
      "buffer": 0,
      "byteLength": 983868,
      "name": "floatBufferViews",
      "target": 34963
    },
    {
      "buffer": 0,
      "byteLength": 339552,
      "byteOffset": 983868,
      "byteStride": 8,
      "name": "floatBufferViews",
      "target": 34962
    },
    {
      "buffer": 0,
      "byteLength": 1221792,
      "byteOffset": 1323420,
      "byteStride": 12,
      "name": "floatBufferViews",
      "target": 34962
    },
    {
      "buffer": 0,
      "byteLength": 3620,
      "byteOffset": 2545212,
      "name": "floatBufferViews"
    },
    {
      "buffer": 0,
      "byteLength": 5772,
      "byteOffset": 2548832,
      "byteStride": 12,
      "name": "floatBufferViews"
    },
    {
      "buffer": 0,
      "byteLength": 6784,
      "byteOffset": 2554604,
      "byteStride": 16,
      "name": "floatBufferViews"
    }
  ],
  "buffers": [
    {
      "byteLength": 2561388,
      "uri": "scene.bin"
    }
  ],
  "materials": [
    {
      "doubleSided": true,
      "name": "col_1",
      "pbrMetallicRoughness": {
        "baseColorFactor": [
          0.013409875333309174,
          0.013409875333309174,
          0.013409875333309174,
          1.0
        ],
        "metallicFactor": 0.0,
        "roughnessFactor": 0.6
      }
    },
    {
      "doubleSided": true,
      "name": "col_2",
      "pbrMetallicRoughness": {
        "baseColorFactor": [
          0.800000011920929,
          0.800000011920929,
          0.800000011920929,
          1.0
        ],
        "metallicFactor": 0.0,
        "roughnessFactor": 0.6
      }
    },
    {
      "doubleSided": true,
      "name": "col_master",
      "pbrMetallicRoughness": {
        "baseColorFactor": [
          0.07227184623479843,
          0.3662526309490204,
          0.4677838385105133,
          1.0
        ],
        "metallicFactor": 0.0,
        "roughnessFactor": 0.6
      }
    },
    {
      "doubleSided": true,
      "name": "Material.002",
      "pbrMetallicRoughness": {
        "baseColorFactor": [
          0.023650959134101868,
          0.023650959134101868,
          0.023650959134101868,
          1.0
        ],
        "metallicFactor": 0.0,
        "roughnessFactor": 0.6
      }
    },
    {
      "doubleSided": true,
      "name": "col_tanah",
      "pbrMetallicRoughness": {
        "baseColorFactor": [
          0.3185354173183441,
          0.3185354173183441,
          0.3185354173183441,
          1.0
        ],
        "metallicFactor": 0.0,
        "roughnessFactor": 0.6
      }
    }
  ],
  "meshes": [
    {
      "name": "tanah_0",
      "primitives": [
        {
          "attributes": {
            "NORMAL": 1,
            "POSITION": 0,
            "TEXCOORD_0": 2
          },
          "indices": 3,
          "material": 4,
          "mode": 4
        }
      ]
    },
    {
      "name": "baling-baling_2_0",
      "primitives": [
        {
          "attributes": {
            "NORMAL": 5,
            "POSITION": 4
          },
          "indices": 6,
          "material": 0,
          "mode": 4
        }
      ]
    },
    {
      "name": "baling-baling_2_1",
      "primitives": [
        {
          "attributes": {
            "NORMAL": 8,
            "POSITION": 7
          },
          "indices": 9,
          "material": 1,
          "mode": 4
        }
      ]
    },
    {
      "name": "baling baling_1_0",
      "primitives": [
        {
          "attributes": {
            "NORMAL": 11,
            "POSITION": 10
          },
          "indices": 12,
          "material": 0,
          "mode": 4
        }
      ]
    },
    {
      "name": "baling baling_1_1",
      "primitives": [
        {
          "attributes": {
            "NORMAL": 14,
            "POSITION": 13
          },
          "indices": 15,
          "material": 1,
          "mode": 4
        }
      ]
    },
    {
      "name": "body_helicopter_0",
      "primitives": [
        {
          "attributes": {
            "NORMAL": 17,
            "POSITION": 16,
            "TEXCOORD_0": 18
          },
          "indices": 19,
          "material": 2,
          "mode": 4
        }
      ]
    },
    {
      "name": "body_helicopter_1",
      "primitives": [
        {
          "attributes": {
            "NORMAL": 21,
            "POSITION": 20,
            "TEXCOORD_0": 22
          },
          "indices": 23,
          "material": 3,
          "mode": 4
        }
      ]
    },
    {
      "name": "body_helicopter_2",
      "primitives": [
        {
          "attributes": {
            "NORMAL": 25,
            "POSITION": 24,
            "TEXCOORD_0": 26
          },
          "indices": 27,
          "material": 0,
          "mode": 4
        }
      ]
    }
  ],
  "nodes": [
    {
      "children": [
        1
      ],
      "matrix": [
        1.0,
        0.0,
        0.0,
        0.0,
        0.0,
        2.220446049250313e-16,
        -1.0,
        0.0,
        0.0,
        1.0,
        2.220446049250313e-16,
        0.0,
        0.0,
        0.0,
        0.0,
        1.0
      ],
      "name": "Sketchfab_model"
    },
    {
      "children": [
        2,
        4,
        6,
        8
      ],
      "name": "Root"
    },
    {
      "children": [
        3
      ],
      "matrix": [
        18.83817,
        0.0,
        0.0,
        0.0,
        0.0,
        17.131800000000005,
        0.0,
        0.0,
        0.0,
        0.0,
        11.32386,
        0.0,
        0.0,
        0.0,
        0.39414000000000005,
        1.0
      ],
      "name": "tanah"
    },
    {
      "mesh": 0,
      "name": "tanah_0"
    },
    {
      "children": [
        5
      ],
      "matrix": [
        1.0,
        0.0,
        0.0,
        0.0,
        0.0,
        1.0,
        0.0,
        0.0,
        0.0,
        0.0,
        1.0,
        0.0,
        -12.187909999999999,
        -1.22915,
        9.789269999999998,
        1.0
      ],
      "name": "Point"
    },
    {
      "name": "Point"
    },
    {
      "children": [
        7
      ],
      "matrix": [
        -0.6742600000000001,
        -0.7385,
        0.0,
        0.0,
        0.61258,
        -0.5592900000000001,
        -0.55851,
        0.0,
        0.41246000000000005,
        -0.3765800000000001,
        0.8295,
        0.0,
        10.863570000000001,
        -10.823030000000001,
        14.284559999999999,
        1.0
      ],
      "name": "Point.001"
    },
    {
      "name": "Point.001"
    },
    {
      "children": [
        9,
        13,
        17
      ],
      "name": "Empty_heli",
      "scale": [
        2.1368300914764404,
        6.185150146484375,
        2.1919100284576416
      ],
      "translation": [
        0.0,
        78.13355255126953,
        41.85371017456055
      ]
    },
    {
      "children": [
        10
      ],
      "name": "Empty",
      "rotation": [
        -0.20681022107601166,
        0.0,
        0.0,
        0.9783810973167419
      ],
      "scale": [
        0.07240000367164612,
        0.06679999828338623,
        0.7293699979782104
      ],
      "translation": [
        0.16505999863147736,
        1.5281100273132324,
        0.35499998927116394
      ]
    },
    {
      "children": [
        11,
        12
      ],
      "name": "baling-baling_2",
      "rotation": [
        -0.04261994734406471,
        0.5117794275283813,
        -0.368569552898407,
        0.7748690843582153
      ],
      "scale": [
        0.49331000447273254,
        0.49998000264167786,
        1.945989966392517
      ],
      "translation": [
        0.0,
        2.9999999242136255e-05,
        0.0
      ]
    },
    {
      "mesh": 1,
      "name": "baling-baling_2_0"
    },
    {
      "mesh": 2,
      "name": "baling-baling_2_1"
    },
    {
      "children": [
        14
      ],
      "name": "Empty_baling_1",
      "rotation": [
        0.0,
        0.0,
        -0.20888027548789978,
        0.9779413342475891
      ],
      "scale": [
        4.517749786376953,
        0.21085000038146973,
        0.14176000654697418
      ],
      "translation": [
        0.004920000210404396,
        -0.29335999488830566,
        1.4522600173950195
      ]
    },
    {
      "children": [
        15,
        16
      ],
      "matrix": [
        0.013860000000000003,
        -0.0,
        0.0,
        0.0,
        -0.0,
        0.13977,
        0.0,
        0.0,
        -0.0,
        0.0,
        0.4498000000000001,
        0.0,
        -0.0,
        0.0,
        0.0,
        1.0
      ],
      "name": "baling baling_1"
    },
    {
      "mesh": 3,
      "name": "baling baling_1_0"
    },
    {
      "mesh": 4,
      "name": "baling baling_1_1"
    },
    {
      "children": [
        18,
        19,
        20
      ],
      "matrix": [
        0.46798000000000006,
        0.0,
        0.0,
        0.0,
        0.0,
        0.16168000000000002,
        0.0,
        0.0,
        0.0,
        0.0,
        0.45622,
        0.0,
        0.0,
        -0.41058000000000006,
        -0.056780000000000004,
        1.0
      ],
      "name": "body_helicopter"
    },
    {
      "mesh": 5,
      "name": "body_helicopter_0"
    },
    {
      "mesh": 6,
      "name": "body_helicopter_1"
    },
    {
      "mesh": 7,
      "name": "body_helicopter_2"
    }
  ],
  "scene": 0,
  "scenes": [
    {
      "name": "Sketchfab_Scene",
      "nodes": [
        0
      ]
    }
  ]
}
