{
  "accessors": [
    {
      "bufferView": 2,
      "componentType": 5126,
      "count": 86,
      "max": [
        6.882965087890625,
        1.0729504823684692,
        0.0585428923368454
      ],
      "min": [
        -5.379624843597412,
        -1.0729504823684692,
        0.0
      ],
      "type": "VEC3"
    },
    {
      "bufferView": 2,
      "byteOffset": 1032,
      "componentType": 5126,
      "count": 86,
      "max": [
        0.0,
        1.0,
        4.077440109995223e-07
      ],
      "min": [
        0.0,
        -1.0,
        -1.0
      ],
      "type": "VEC3"
    },
    {
      "bufferView": 1,
      "componentType": 5126,
      "count": 86,
      "max": [
        0.49000000953674316,
        0.49000000953674316
      ],
      "min": [
        0.0,
        0.0
      ],
      "type": "VEC2"
    },
    {
      "bufferView": 0,
      "componentType": 5125,
      "count": 264,
      "type": "SCALAR"
    },
    {
      "bufferView": 2,
      "byteOffset": 2064,
      "componentType": 5126,
      "count": 1416,
      "max": [
        6.882965087890625,
        1.0729504823684692,
        6.329045295715332
      ],
      "min": [
        -5.379624843597412,
        -1.0729504823684692,
        -5.0
      ],
      "type": "VEC3"
    },
    {
      "bufferView": 2,
      "byteOffset": 19056,
      "componentType": 5126,
      "count": 1416,
      "max": [
        1.0,
        1.0,
        1.0
      ],
      "min": [
        -1.0,
        -1.0,
        -1.0
      ],
      "type": "VEC3"
    },
    {
      "bufferView": 1,
      "byteOffset": 688,
      "componentType": 5126,
      "count": 1416,
      "max": [
        0.49000000953674316,
        0.49000000953674316
      ],
      "min": [
        0.0,
        0.0
      ],
      "type": "VEC2"
    },
    {
      "bufferView": 0,
      "byteOffset": 1056,
      "componentType": 5125,
      "count": 3819,
      "type": "SCALAR"
    },
    {
      "bufferView": 2,
      "byteOffset": 36048,
      "componentType": 5126,
      "count": 32,
      "max": [
        1.747645378112793,
        0.5057936906814575,
        3.770911931991577
      ],
      "min": [
        -0.9042144417762756,
        -0.5057936906814575,
        0.0585428923368454
      ],
      "type": "VEC3"
    },
    {
      "bufferView": 2,
      "byteOffset": 36432,
      "componentType": 5126,
      "count": 32,
      "max": [
        4.796367747417207e-08,
        1.0,
        3.1643452302887454e-07
      ],
      "min": [
        -6.476083314055359e-08,
        -1.0,
        -3.590908548289917e-08
      ],
      "type": "VEC3"
    },
    {
      "bufferView": 1,
      "byteOffset": 12016,
      "componentType": 5126,
      "count": 32,
      "max": [
        0.36879396438598633,
        0.36313706636428833
      ],
      "min": [
        0.18211773037910461,
        0.13686290383338928
      ],
      "type": "VEC2"
    },
    {
      "bufferView": 0,
      "byteOffset": 16332,
      "componentType": 5125,
      "count": 48,
      "type": "SCALAR"
    },
    {
      "bufferView": 2,
      "byteOffset": 36816,
      "componentType": 5126,
      "count": 428,
      "max": [
        0.9506583213806152,
        0.9999997019767761,
        10.064976692199707
      ],
      "min": [
        -0.9440784454345703,
        -1.0000003576278687,
        -1.0
      ],
      "type": "VEC3"
    },
    {
      "bufferView": 2,
      "byteOffset": 41952,
      "componentType": 5126,
      "count": 428,
      "max": [
        1.0,
        0.9984168410301208,
        1.0
      ],
      "min": [
        -1.0,
        -0.9984168410301208,
        -1.0
      ],
      "type": "VEC3"
    },
    {
      "bufferView": 1,
      "byteOffset": 12272,
      "componentType": 5126,
      "count": 428,
      "max": [
        1.0,
        1.0
      ],
      "min": [
        0.0,
        0.01000000536441803
      ],
      "type": "VEC2"
    },
    {
      "bufferView": 0,
      "byteOffset": 16524,
      "componentType": 5125,
      "count": 1242,
      "type": "SCALAR"
    },
    {
      "bufferView": 2,
      "byteOffset": 47088,
      "componentType": 5126,
      "count": 428,
      "max": [
        0.9506583213806152,
        0.9999997019767761,
        10.064976692199707
      ],
      "min": [
        -0.9440784454345703,
        -1.0000003576278687,
        -1.0
      ],
      "type": "VEC3"
    },
    {
      "bufferView": 2,
      "byteOffset": 52224,
      "componentType": 5126,
      "count": 428,
      "max": [
        1.0,
        0.9984168410301208,
        1.0
      ],
      "min": [
        -1.0,
        -0.9984167814254761,
        -1.0
      ],
      "type": "VEC3"
    },
    {
      "bufferView": 1,
      "byteOffset": 15696,
      "componentType": 5126,
      "count": 428,
      "max": [
        1.0,
        1.0
      ],
      "min": [
        0.0,
        0.01000000536441803
      ],
      "type": "VEC2"
    },
    {
      "bufferView": 0,
      "byteOffset": 21492,
      "componentType": 5125,
      "count": 1242,
      "type": "SCALAR"
    },
    {
      "bufferView": 2,
      "byteOffset": 57360,
      "componentType": 5126,
      "count": 575,
      "max": [
        5.073874473571777,
        1.149999976158142,
        2.4402079582214355
      ],
      "min": [
        -1.0,
        -1.149999976158142,
        -1.3529298305511475
      ],
      "type": "VEC3"
    },
    {
      "bufferView": 2,
      "byteOffset": 64260,
      "componentType": 5126,
      "count": 575,
      "max": [
        1.0,
        1.0,
        1.0
      ],
      "min": [
        -1.0,
        -1.0,
        -1.0
      ],
      "type": "VEC3"
    },
    {
      "bufferView": 1,
      "byteOffset": 19120,
      "componentType": 5126,
      "count": 575,
      "max": [
        1.0,
        1.0
      ],
      "min": [
        0.0,
        0.0
      ],
      "type": "VEC2"
    },
    {
      "bufferView": 0,
      "byteOffset": 26460,
      "componentType": 5125,
      "count": 1353,
      "type": "SCALAR"
    },
    {
      "bufferView": 2,
      "byteOffset": 71160,
      "componentType": 5126,
      "count": 66,
      "max": [
        1.0,
        1.0,
        1.0
      ],
      "min": [
        -1.0,
        -1.0,
        -1.0
      ],
      "type": "VEC3"
    },
    {
      "bufferView": 2,
      "byteOffset": 71952,
      "componentType": 5126,
      "count": 66,
      "max": [
        1.0,
        1.0,
        1.0
      ],
      "min": [
        -1.0,
        -1.0,
        -1.0
      ],
      "type": "VEC3"
    },
    {
      "bufferView": 1,
      "byteOffset": 23720,
      "componentType": 5126,
      "count": 66,
      "max": [
        1.0,
        1.0
      ],
      "min": [
        0.0,
        0.01000000536441803
      ],
      "type": "VEC2"
    },
    {
      "bufferView": 0,
      "byteOffset": 31872,
      "componentType": 5125,
      "count": 180,
      "type": "SCALAR"
    },
    {
      "bufferView": 2,
      "byteOffset": 72744,
      "componentType": 5126,
      "count": 428,
      "max": [
        0.9506583213806152,
        0.9999997019767761,
        10.064976692199707
      ],
      "min": [
        -0.9440784454345703,
        -1.0000003576278687,
        -1.0
      ],
      "type": "VEC3"
    },
    {
      "bufferView": 2,
      "byteOffset": 77880,
      "componentType": 5126,
      "count": 428,
      "max": [
        1.0,
        0.9984168410301208,
        1.0
      ],
      "min": [
        -1.0,
        -0.9984168410301208,
        -1.0
      ],
      "type": "VEC3"
    },
    {
      "bufferView": 1,
      "byteOffset": 24248,
      "componentType": 5126,
      "count": 428,
      "max": [
        1.0,
        1.0
      ],
      "min": [
        0.0,
        0.01000000536441803
      ],
      "type": "VEC2"
    },
    {
      "bufferView": 0,
      "byteOffset": 32592,
      "componentType": 5125,
      "count": 1242,
      "type": "SCALAR"
    },
    {
      "bufferView": 2,
      "byteOffset": 83016,
      "componentType": 5126,
      "count": 428,
      "max": [
        0.9506583213806152,
        0.9999997019767761,
        10.064976692199707
      ],
      "min": [
        -0.9440784454345703,
        -1.0000003576278687,
        -1.0
      ],
      "type": "VEC3"
    },
    {
      "bufferView": 2,
      "byteOffset": 88152,
      "componentType": 5126,
      "count": 428,
      "max": [
        1.0,
        0.9984168410301208,
        1.0
      ],
      "min": [
        -1.0,
        -0.9984167814254761,
        -1.0
      ],
      "type": "VEC3"
    },
    {
      "bufferView": 1,
      "byteOffset": 27672,
      "componentType": 5126,
      "count": 428,
      "max": [
        1.0,
        1.0
      ],
      "min": [
        0.0,
        0.01000000536441803
      ],
      "type": "VEC2"
    },
    {
      "bufferView": 0,
      "byteOffset": 37560,
      "componentType": 5125,
      "count": 1242,
      "type": "SCALAR"
    },
    {
      "bufferView": 2,
      "byteOffset": 93288,
      "componentType": 5126,
      "count": 575,
      "max": [
        5.073874473571777,
        1.149999976158142,
        2.4402079582214355
      ],
      "min": [
        -1.0,
        -1.149999976158142,
        -1.3529298305511475
      ],
      "type": "VEC3"
    },
    {
      "bufferView": 2,
      "byteOffset": 100188,
      "componentType": 5126,
      "count": 575,
      "max": [
        1.0,
        1.0,
        1.0
      ],
      "min": [
        -1.0,
        -1.0,
        -1.0
      ],
      "type": "VEC3"
    },
    {
      "bufferView": 1,
      "byteOffset": 31096,
      "componentType": 5126,
      "count": 575,
      "max": [
        1.0,
        1.0
      ],
      "min": [
        0.0,
        0.0
      ],
      "type": "VEC2"
    },
    {
      "bufferView": 0,
      "byteOffset": 42528,
      "componentType": 5125,
      "count": 1353,
      "type": "SCALAR"
    },
    {
      "bufferView": 2,
      "byteOffset": 107088,
      "componentType": 5126,
      "count": 428,
      "max": [
        0.9506583213806152,
        0.9999997019767761,
        10.064976692199707
      ],
      "min": [
        -0.9440784454345703,
        -1.0000003576278687,
        -1.0
      ],
      "type": "VEC3"
    },
    {
      "bufferView": 2,
      "byteOffset": 112224,
      "componentType": 5126,
      "count": 428,
      "max": [
        1.0,
        0.9984168410301208,
        1.0
      ],
      "min": [
        -1.0,
        -0.9984167814254761,
        -1.0
      ],
      "type": "VEC3"
    },
    {
      "bufferView": 1,
      "byteOffset": 35696,
      "componentType": 5126,
      "count": 428,
      "max": [
        1.0,
        1.0
      ],
      "min": [
        0.0,
        0.01000000536441803
      ],
      "type": "VEC2"
    },
    {
      "bufferView": 0,
      "byteOffset": 47940,
      "componentType": 5125,
      "count": 1242,
      "type": "SCALAR"
    },
    {
      "bufferView": 2,
      "byteOffset": 117360,
      "componentType": 5126,
      "count": 428,
      "max": [
        0.9506583213806152,
        0.9999997019767761,
        10.064976692199707
      ],
      "min": [
        -0.9440784454345703,
        -1.0000003576278687,
        -1.0
      ],
      "type": "VEC3"
    },
    {
      "bufferView": 2,
      "byteOffset": 122496,
      "componentType": 5126,
      "count": 428,
      "max": [
        1.0,
        0.9984168410301208,
        1.0
      ],
      "min": [
        -1.0,
        -0.9984168410301208,
        -1.0
      ],
      "type": "VEC3"
    },
    {
      "bufferView": 1,
      "byteOffset": 39120,
      "componentType": 5126,
      "count": 428,
      "max": [
        1.0,
        1.0
      ],
      "min": [
        0.0,
        0.01000000536441803
      ],
      "type": "VEC2"
    },
    {
      "bufferView": 0,
      "byteOffset": 52908,
      "componentType": 5125,
      "count": 1242,
      "type": "SCALAR"
    },
    {
      "bufferView": 2,
      "byteOffset": 127632,
      "componentType": 5126,
      "count": 66,
      "max": [
        1.0,
        1.0,
        1.0
      ],
      "min": [
        -1.0,
        -1.0,
        -1.0
      ],
      "type": "VEC3"
    },
    {
      "bufferView": 2,
      "byteOffset": 128424,
      "componentType": 5126,
      "count": 66,
      "max": [
        1.0,
        1.0,
        1.0
      ],
      "min": [
        -1.0,
        -1.0,
        -1.0
      ],
      "type": "VEC3"
    },
    {
      "bufferView": 1,
      "byteOffset": 42544,
      "componentType": 5126,
      "count": 66,
      "max": [
        1.0,
        1.0
      ],
      "min": [
        0.0,
        0.01000000536441803
      ],
      "type": "VEC2"
    },
    {
      "bufferView": 0,
      "byteOffset": 57876,
      "componentType": 5125,
      "count": 180,
      "type": "SCALAR"
    },
    {
      "bufferView": 2,
      "byteOffset": 129216,
      "componentType": 5126,
      "count": 575,
      "max": [
        5.073874473571777,
        1.149999976158142,
        2.4402079582214355
      ],
      "min": [
        -1.0,
        -1.149999976158142,
        -1.3529298305511475
      ],
      "type": "VEC3"
    },
    {
      "bufferView": 2,
      "byteOffset": 136116,
      "componentType": 5126,
      "count": 575,
      "max": [
        1.0,
        1.0,
        1.0
      ],
      "min": [
        -1.0,
        -1.0,
        -1.0
      ],
      "type": "VEC3"
    },
    {
      "bufferView": 1,
      "byteOffset": 43072,
      "componentType": 5126,
      "count": 575,
      "max": [
        1.0,
        1.0
      ],
      "min": [
        0.0,
        0.0
      ],
      "type": "VEC2"
    },
    {
      "bufferView": 0,
      "byteOffset": 58596,
      "componentType": 5125,
      "count": 1353,
      "type": "SCALAR"
    },
    {
      "bufferView": 2,
      "byteOffset": 143016,
      "componentType": 5126,
      "count": 66,
      "max": [
        1.0,
        1.0,
        1.0
      ],
      "min": [
        -1.0,
        -1.0,
        -8.110913276672363
      ],
      "type": "VEC3"
    },
    {
      "bufferView": 2,
      "byteOffset": 143808,
      "componentType": 5126,
      "count": 66,
      "max": [
        1.0,
        1.0,
        1.0
      ],
      "min": [
        -1.0,
        -1.0,
        -1.0
      ],
      "type": "VEC3"
    },
    {
      "bufferView": 1,
      "byteOffset": 47672,
      "componentType": 5126,
      "count": 66,
      "max": [
        1.0,
        1.0
      ],
      "min": [
        0.0,
        0.01000000536441803
      ],
      "type": "VEC2"
    },
    {
      "bufferView": 0,
      "byteOffset": 64008,
      "componentType": 5125,
      "count": 180,
      "type": "SCALAR"
    },
    {
      "bufferView": 2,
      "byteOffset": 144600,
      "componentType": 5126,
      "count": 428,
      "max": [
        0.9506583213806152,
        0.9999997019767761,
        10.064976692199707
      ],
      "min": [
        -0.9440784454345703,
        -1.0000003576278687,
        -1.0
      ],
      "type": "VEC3"
    },
    {
      "bufferView": 2,
      "byteOffset": 149736,
      "componentType": 5126,
      "count": 428,
      "max": [
        1.0,
        0.9984168410301208,
        1.0
      ],
      "min": [
        -1.0,
        -0.9984168410301208,
        -1.0
      ],
      "type": "VEC3"
    },
    {
      "bufferView": 1,
      "byteOffset": 48200,
      "componentType": 5126,
      "count": 428,
      "max": [
        1.0,
        1.0
      ],
      "min": [
        0.0,
        0.01000000536441803
      ],
      "type": "VEC2"
    },
    {
      "bufferView": 0,
      "byteOffset": 64728,
      "componentType": 5125,
      "count": 1242,
      "type": "SCALAR"
    },
    {
      "bufferView": 2,
      "byteOffset": 154872,
      "componentType": 5126,
      "count": 428,
      "max": [
        0.9506583213806152,
        0.9999997019767761,
        10.064976692199707
      ],
      "min": [
        -0.9440784454345703,
        -1.0000003576278687,
        -1.0
      ],
      "type": "VEC3"
    },
    {
      "bufferView": 2,
      "byteOffset": 160008,
      "componentType": 5126,
      "count": 428,
      "max": [
        1.0,
        0.9984168410301208,
        1.0
      ],
      "min": [
        -1.0,
        -0.9984167814254761,
        -1.0
      ],
      "type": "VEC3"
    },
    {
      "bufferView": 1,
      "byteOffset": 51624,
      "componentType": 5126,
      "count": 428,
      "max": [
        1.0,
        1.0
      ],
      "min": [
        0.0,
        0.01000000536441803
      ],
      "type": "VEC2"
    },
    {
      "bufferView": 0,
      "byteOffset": 69696,
      "componentType": 5125,
      "count": 1242,
      "type": "SCALAR"
    },
    {
      "bufferView": 2,
      "byteOffset": 165144,
      "componentType": 5126,
      "count": 575,
      "max": [
        5.073874473571777,
        1.149999976158142,
        2.4402079582214355
      ],
      "min": [
        -1.0,
        -1.149999976158142,
        -1.3529298305511475
      ],
      "type": "VEC3"
    },
    {
      "bufferView": 2,
      "byteOffset": 172044,
      "componentType": 5126,
      "count": 575,
      "max": [
        1.0,
        1.0,
        1.0
      ],
      "min": [
        -1.0,
        -1.0,
        -1.0
      ],
      "type": "VEC3"
    },
    {
      "bufferView": 1,
      "byteOffset": 55048,
      "componentType": 5126,
      "count": 575,
      "max": [
        1.0,
        1.0
      ],
      "min": [
        0.0,
        0.0
      ],
      "type": "VEC2"
    },
    {
      "bufferView": 0,
      "byteOffset": 74664,
      "componentType": 5125,
      "count": 1353,
      "type": "SCALAR"
    },
    {
      "bufferView": 2,
      "byteOffset": 178944,
      "componentType": 5126,
      "count": 1276,
      "max": [
        2.2901577949523926,
        3.096562147140503,
        0.7271859049797058
      ],
      "min": [
        -2.2901577949523926,
        -3.096564531326294,
        -2.789447069168091
      ],
      "type": "VEC3"
    },
    {
      "bufferView": 2,
      "byteOffset": 194256,
      "componentType": 5126,
      "count": 1276,
      "max": [
        1.0,
        1.0,
        1.0
      ],
      "min": [
        -1.0,
        -1.0,
        -1.0
      ],
      "type": "VEC3"
    },
    {
      "bufferView": 1,
      "byteOffset": 59648,
      "componentType": 5126,
      "count": 1276,
      "max": [
        0.875,
        1.0755665302276611
      ],
      "min": [
        0.125,
        0.0
      ],
      "type": "VEC2"
    },
    {
      "bufferView": 0,
      "byteOffset": 80076,
      "componentType": 5125,
      "count": 2292,
      "type": "SCALAR"
    },
    {
      "bufferView": 2,
      "byteOffset": 209568,
      "componentType": 5126,
      "count": 1276,
      "max": [
        2.2901577949523926,
        3.096562147140503,
        0.7271859049797058
      ],
      "min": [
        -2.2901577949523926,
        -3.096564531326294,
        -1.605101227760315
      ],
      "type": "VEC3"
    },
    {
      "bufferView": 2,
      "byteOffset": 224880,
      "componentType": 5126,
      "count": 1276,
      "max": [
        1.0,
        1.0,
        1.0
      ],
      "min": [
        -1.0,
        -1.0,
        -1.0
      ],
      "type": "VEC3"
    },
    {
      "bufferView": 1,
      "byteOffset": 69856,
      "componentType": 5126,
      "count": 1276,
      "max": [
        0.875,
        1.0755665302276611
      ],
      "min": [
        0.125,
        0.0
      ],
      "type": "VEC2"
    },
    {
      "bufferView": 0,
      "byteOffset": 89244,
      "componentType": 5125,
      "count": 2292,
      "type": "SCALAR"
    },
    {
      "bufferView": 2,
      "byteOffset": 240192,
      "componentType": 5126,
      "count": 553,
      "max": [
        4.51951265335083,
        1.7239320278167725,
        1.0589385032653809
      ],
      "min": [
        -5.07560920715332,
        -1.7239320278167725,
        -2.369708299636841
      ],
      "type": "VEC3"
    },
    {
      "bufferView": 2,
      "byteOffset": 246828,
      "componentType": 5126,
      "count": 553,
      "max": [
        1.0,
        1.0,
        1.0
      ],
      "min": [
        -1.0,
        -1.0,
        -1.0
      ],
      "type": "VEC3"
    },
    {
      "bufferView": 1,
      "byteOffset": 80064,
      "componentType": 5126,
      "count": 553,
      "max": [
        0.875,
        1.0
      ],
      "min": [
        0.125,
        0.0
      ],
      "type": "VEC2"
    },
    {
      "bufferView": 0,
      "byteOffset": 98412,
      "componentType": 5125,
      "count": 975,
      "type": "SCALAR"
    },
    {
      "bufferView": 2,
      "byteOffset": 253464,
      "componentType": 5126,
      "count": 553,
      "max": [
        4.51951265335083,
        1.7239320278167725,
        1.0589385032653809
      ],
      "min": [
        -5.07560920715332,
        -1.7239320278167725,
        -2.369708299636841
      ],
      "type": "VEC3"
    },
    {
      "bufferView": 2,
      "byteOffset": 260100,
      "componentType": 5126,
      "count": 553,
      "max": [
        1.0,
        1.0,
        1.0
      ],
      "min": [
        -1.0,
        -1.0,
        -1.0
      ],
      "type": "VEC3"
    },
    {
      "bufferView": 1,
      "byteOffset": 84488,
      "componentType": 5126,
      "count": 553,
      "max": [
        0.875,
        1.0
      ],
      "min": [
        0.125,
        0.0
      ],
      "type": "VEC2"
    },
    {
      "bufferView": 0,
      "byteOffset": 102312,
      "componentType": 5125,
      "count": 975,
      "type": "SCALAR"
    },
    {
      "bufferView": 2,
      "byteOffset": 266736,
      "componentType": 5126,
      "count": 553,
      "max": [
        4.51951265335083,
        1.7239320278167725,
        1.0589385032653809
      ],
      "min": [
        -5.07560920715332,
        -1.7239320278167725,
        -2.369708299636841
      ],
      "type": "VEC3"
    },
    {
      "bufferView": 2,
      "byteOffset": 273372,
      "componentType": 5126,
      "count": 553,
      "max": [
        1.0,
        1.0,
        1.0
      ],
      "min": [
        -1.0,
        -1.0,
        -1.0
      ],
      "type": "VEC3"
    },
    {
      "bufferView": 1,
      "byteOffset": 88912,
      "componentType": 5126,
      "count": 553,
      "max": [
        0.875,
        1.0
      ],
      "min": [
        0.125,
        0.0
      ],
      "type": "VEC2"
    },
    {
      "bufferView": 0,
      "byteOffset": 106212,
      "componentType": 5125,
      "count": 975,
      "type": "SCALAR"
    },
    {
      "bufferView": 2,
      "byteOffset": 280008,
      "componentType": 5126,
      "count": 553,
      "max": [
        4.51951265335083,
        1.7239320278167725,
        1.0589385032653809
      ],
      "min": [
        -5.07560920715332,
        -1.7239320278167725,
        -2.369708299636841
      ],
      "type": "VEC3"
    },
    {
      "bufferView": 2,
      "byteOffset": 286644,
      "componentType": 5126,
      "count": 553,
      "max": [
        1.0,
        1.0,
        1.0
      ],
      "min": [
        -1.0,
        -1.0,
        -1.0
      ],
      "type": "VEC3"
    },
    {
      "bufferView": 1,
      "byteOffset": 93336,
      "componentType": 5126,
      "count": 553,
      "max": [
        0.875,
        1.0
      ],
      "min": [
        0.125,
        0.0
      ],
      "type": "VEC2"
    },
    {
      "bufferView": 0,
      "byteOffset": 110112,
      "componentType": 5125,
      "count": 975,
      "type": "SCALAR"
    },
    {
      "bufferView": 2,
      "byteOffset": 293280,
      "componentType": 5126,
      "count": 917,
      "max": [
        5.495823860168457,
        1.8139575719833374,
        0.8826968669891357
      ],
      "min": [
        -4.625304698944092,
        -1.8266133069992065,
        -2.461526870727539
      ],
      "type": "VEC3"
    },
    {
      "bufferView": 2,
      "byteOffset": 304284,
      "componentType": 5126,
      "count": 917,
      "max": [
        1.0,
        1.0,
        1.0
      ],
      "min": [
        -1.0,
        -1.0,
        -1.0
      ],
      "type": "VEC3"
    },
    {
      "bufferView": 1,
      "byteOffset": 97760,
      "componentType": 5126,
      "count": 917,
      "max": [
        0.875,
        1.0
      ],
      "min": [
        0.0,
        0.0
      ],
      "type": "VEC2"
    },
    {
      "bufferView": 0,
      "byteOffset": 114012,
      "componentType": 5125,
      "count": 2466,
      "type": "SCALAR"
    },
    {
      "bufferView": 2,
      "byteOffset": 315288,
      "componentType": 5126,
      "count": 917,
      "max": [
        5.495823860168457,
        1.8139575719833374,
        0.8826968669891357
      ],
      "min": [
        -4.625304698944092,
        -1.8266133069992065,
        -2.461526870727539
      ],
      "type": "VEC3"
    },
    {
      "bufferView": 2,
      "byteOffset": 326292,
      "componentType": 5126,
      "count": 917,
      "max": [
        1.0,
        1.0,
        1.0
      ],
      "min": [
        -1.0,
        -1.0,
        -1.0
      ],
      "type": "VEC3"
    },
    {
      "bufferView": 1,
      "byteOffset": 105096,
      "componentType": 5126,
      "count": 917,
      "max": [
        0.875,
        1.0
      ],
      "min": [
        0.0,
        0.0
      ],
      "type": "VEC2"
    },
    {
      "bufferView": 0,
      "byteOffset": 123876,
      "componentType": 5125,
      "count": 2466,
      "type": "SCALAR"
    },
    {
      "bufferView": 2,
      "byteOffset": 337296,
      "componentType": 5126,
      "count": 917,
      "max": [
        5.495823860168457,
        1.8139575719833374,
        0.8826968669891357
      ],
      "min": [
        -4.625304698944092,
        -1.8266133069992065,
        -2.461526870727539
      ],
      "type": "VEC3"
    },
    {
      "bufferView": 2,
      "byteOffset": 348300,
      "componentType": 5126,
      "count": 917,
      "max": [
        1.0,
        1.0,
        1.0
      ],
      "min": [
        -1.0,
        -1.0,
        -1.0
      ],
      "type": "VEC3"
    },
    {
      "bufferView": 1,
      "byteOffset": 112432,
      "componentType": 5126,
      "count": 917,
      "max": [
        0.875,
        1.0
      ],
      "min": [
        0.0,
        0.0
      ],
      "type": "VEC2"
    },
    {
      "bufferView": 0,
      "byteOffset": 133740,
      "componentType": 5125,
      "count": 2466,
      "type": "SCALAR"
    },
    {
      "bufferView": 2,
      "byteOffset": 359304,
      "componentType": 5126,
      "count": 917,
      "max": [
        5.495823860168457,
        1.8139575719833374,
        0.8826968669891357
      ],
      "min": [
        -4.625304698944092,
        -1.8266133069992065,
        -2.461526870727539
      ],
      "type": "VEC3"
    },
    {
      "bufferView": 2,
      "byteOffset": 370308,
      "componentType": 5126,
      "count": 917,
      "max": [
        1.0,
        1.0,
        1.0
      ],
      "min": [
        -1.0,
        -1.0,
        -1.0
      ],
      "type": "VEC3"
    },
    {
      "bufferView": 1,
      "byteOffset": 119768,
      "componentType": 5126,
      "count": 917,
      "max": [
        0.875,
        1.0
      ],
      "min": [
        0.0,
        0.0
      ],
      "type": "VEC2"
    },
    {
      "bufferView": 0,
      "byteOffset": 143604,
      "componentType": 5125,
      "count": 2466,
      "type": "SCALAR"
    },
    {
      "bufferView": 2,
      "byteOffset": 381312,
      "componentType": 5126,
      "count": 358,
      "max": [
        1.0,
        1.0,
        1.0
      ],
      "min": [
        -0.9999999403953552,
        -1.0000001192092896,
        -1.6131911277770996
      ],
      "type": "VEC3"
    },
    {
      "bufferView": 2,
      "byteOffset": 385608,
      "componentType": 5126,
      "count": 358,
      "max": [
        1.0,
        1.0,
        1.0
      ],
      "min": [
        -1.0,
        -1.0,
        -1.0
      ],
      "type": "VEC3"
    },
    {
      "bufferView": 1,
      "byteOffset": 127104,
      "componentType": 5126,
      "count": 358,
      "max": [
        1.0,
        1.0
      ],
      "min": [
        0.0,
        0.0
      ],
      "type": "VEC2"
    },
    {
      "bufferView": 0,
      "byteOffset": 153468,
      "componentType": 5125,
      "count": 1578,
      "type": "SCALAR"
    },
    {
      "bufferView": 2,
      "byteOffset": 389904,
      "componentType": 5126,
      "count": 358,
      "max": [
        1.0,
        1.0,
        1.0
      ],
      "min": [
        -0.9999999403953552,
        -1.0000001192092896,
        -1.6131911277770996
      ],
      "type": "VEC3"
    },
    {
      "bufferView": 2,
      "byteOffset": 394200,
      "componentType": 5126,
      "count": 358,
      "max": [
        1.0,
        1.0,
        1.0
      ],
      "min": [
        -1.0,
        -1.0,
        -1.0
      ],
      "type": "VEC3"
    },
    {
      "bufferView": 1,
      "byteOffset": 129968,
      "componentType": 5126,
      "count": 358,
      "max": [
        1.0,
        1.0
      ],
      "min": [
        0.0,
        0.0
      ],
      "type": "VEC2"
    },
    {
      "bufferView": 0,
      "byteOffset": 159780,
      "componentType": 5125,
      "count": 1578,
      "type": "SCALAR"
    },
    {
      "bufferView": 2,
      "byteOffset": 398496,
      "componentType": 5126,
      "count": 2000,
      "max": [
        0.26292967796325684,
        0.1381606012582779,
        0.23895415663719177
      ],
      "min": [
        -0.18178360164165497,
        -0.1381606012582779,
        -0.16523869335651398
      ],
      "type": "VEC3"
    },
    {
      "bufferView": 2,
      "byteOffset": 422496,
      "componentType": 5126,
      "count": 2000,
      "max": [
        0.9988508820533752,
        0.707109272480011,
        0.9988511800765991
      ],
      "min": [
        -0.9988510608673096,
        -0.7071090936660767,
        -0.9988511204719543
      ],
      "type": "VEC3"
    },
    {
      "bufferView": 1,
      "byteOffset": 132832,
      "componentType": 5126,
      "count": 2000,
      "max": [
        0.2839411497116089,
        0.3065685033798218
      ],
      "min": [
        0.2160588502883911,
        0.19343142211437225
      ],
      "type": "VEC2"
    },
    {
      "bufferView": 0,
      "byteOffset": 166092,
      "componentType": 5125,
      "count": 3264,
      "type": "SCALAR"
    },
    {
      "bufferView": 2,
      "byteOffset": 446496,
      "componentType": 5126,
      "count": 1276,
      "max": [
        2.2901577949523926,
        3.096562147140503,
        0.7271859049797058
      ],
      "min": [
        -2.2901577949523926,
        -3.096564531326294,
        -1.605101227760315
      ],
      "type": "VEC3"
    },
    {
      "bufferView": 2,
      "byteOffset": 461808,
      "componentType": 5126,
      "count": 1276,
      "max": [
        1.0,
        1.0,
        1.0
      ],
      "min": [
        -1.0,
        -1.0,
        -1.0
      ],
      "type": "VEC3"
    },
    {
      "bufferView": 1,
      "byteOffset": 148832,
      "componentType": 5126,
      "count": 1276,
      "max": [
        0.875,
        1.0755665302276611
      ],
      "min": [
        0.125,
        0.0
      ],
      "type": "VEC2"
    },
    {
      "bufferView": 0,
      "byteOffset": 179148,
      "componentType": 5125,
      "count": 2292,
      "type": "SCALAR"
    },
    {
      "bufferView": 2,
      "byteOffset": 477120,
      "componentType": 5126,
      "count": 917,
      "max": [
        5.495823860168457,
        1.8139575719833374,
        0.8826968669891357
      ],
      "min": [
        -4.625304698944092,
        -1.8266133069992065,
        -2.461526870727539
      ],
      "type": "VEC3"
    },
    {
      "bufferView": 2,
      "byteOffset": 488124,
      "componentType": 5126,
      "count": 917,
      "max": [
        1.0,
        1.0,
        1.0
      ],
      "min": [
        -1.0,
        -1.0,
        -1.0
      ],
      "type": "VEC3"
    },
    {
      "bufferView": 1,
      "byteOffset": 159040,
      "componentType": 5126,
      "count": 917,
      "max": [
        0.875,
        1.0
      ],
      "min": [
        0.0,
        0.0
      ],
      "type": "VEC2"
    },
    {
      "bufferView": 0,
      "byteOffset": 188316,
      "componentType": 5125,
      "count": 2466,
      "type": "SCALAR"
    },
    {
      "bufferView": 2,
      "byteOffset": 499128,
      "componentType": 5126,
      "count": 917,
      "max": [
        5.495823860168457,
        1.8139575719833374,
        0.8826968669891357
      ],
      "min": [
        -4.625304698944092,
        -1.8266133069992065,
        -2.461526870727539
      ],
      "type": "VEC3"
    },
    {
      "bufferView": 2,
      "byteOffset": 510132,
      "componentType": 5126,
      "count": 917,
      "max": [
        1.0,
        1.0,
        1.0
      ],
      "min": [
        -1.0,
        -1.0,
        -1.0
      ],
      "type": "VEC3"
    },
    {
      "bufferView": 1,
      "byteOffset": 166376,
      "componentType": 5126,
      "count": 917,
      "max": [
        0.875,
        1.0
      ],
      "min": [
        0.0,
        0.0
      ],
      "type": "VEC2"
    },
    {
      "bufferView": 0,
      "byteOffset": 198180,
      "componentType": 5125,
      "count": 2466,
      "type": "SCALAR"
    },
    {
      "bufferView": 2,
      "byteOffset": 521136,
      "componentType": 5126,
      "count": 1650,
      "max": [
        41.0,
        1.0,
        1.0
      ],
      "min": [
        -1.0,
        -1.0,
        -1.0
      ],
      "type": "VEC3"
    },
    {
      "bufferView": 2,
      "byteOffset": 540936,
      "componentType": 5126,
      "count": 1650,
      "max": [
        1.0,
        1.0,
        1.0
      ],
      "min": [
        -1.0,
        -1.0,
        -1.0
      ],
      "type": "VEC3"
    },
    {
      "bufferView": 1,
      "byteOffset": 173712,
      "componentType": 5126,
      "count": 1650,
      "max": [
        1.0,
        1.0
      ],
      "min": [
        0.0,
        0.5
      ],
      "type": "VEC2"
    },
    {
      "bufferView": 0,
      "byteOffset": 208044,
      "componentType": 5125,
      "count": 4800,
      "type": "SCALAR"
    },
    {
      "bufferView": 2,
      "byteOffset": 560736,
      "componentType": 5126,
      "count": 320,
      "max": [
        40.79999923706055,
        0.7999992966651917,
        0.9921568632125854
      ],
      "min": [
        -0.7999997735023499,
        -0.8000008463859558,
        -0.9921568632125854
      ],
      "type": "VEC3"
    },
    {
      "bufferView": 2,
      "byteOffset": 564576,
      "componentType": 5126,
      "count": 320,
      "max": [
        -1.864765941661517e-08,
        0.0,
        1.0
      ],
      "min": [
        -5.22134726566037e-08,
        0.0,
        -1.0
      ],
      "type": "VEC3"
    },
    {
      "bufferView": 1,
      "byteOffset": 186912,
      "componentType": 5126,
      "count": 320,
      "max": [
        0.9900000095367432,
        0.49000000953674316
      ],
      "min": [
        0.01000000536441803,
        0.01000000536441803
      ],
      "type": "VEC2"
    },
    {
      "bufferView": 0,
      "byteOffset": 227244,
      "componentType": 5125,
      "count": 900,
      "type": "SCALAR"
    }
  ],
  "asset": {
    "extras": {
      "author": "minehffd (https://sketchfab.com/minehffd)",
      "license": "CC-BY-4.0 (http://creativecommons.org/licenses/by/4.0/)",
      "source": "https://sketchfab.com/3d-models/low-poly-battleship-8d5e7633b6084c5f947f7134c495a59b",
      "title": "Low poly battleship"
    },
    "generator": "Sketchfab-14.20.0",
    "version": "2.0"
  },
  "bufferViews": [
    {
      "buffer": 0,
      "byteLength": 230844,
      "name": "floatBufferViews",
      "target": 34963
    },
    {
      "buffer": 0,
      "byteLength": 189472,
      "byteOffset": 230844,
      "byteStride": 8,
      "name": "floatBufferViews",
      "target": 34962
    },
    {
      "buffer": 0,
      "byteLength": 568416,
      "byteOffset": 420316,
      "byteStride": 12,
      "name": "floatBufferViews",
      "target": 34962
    }
  ],
  "buffers": [
    {
      "byteLength": 988732,
      "uri": "scene.bin"
    }
  ],
  "images": [
    {
      "uri": "textures/Material.015_baseColor.jpeg"
    },
    {
      "uri": "textures/Material.014_baseColor.jpeg"
    }
  ],
  "materials": [
    {
      "doubleSided": true,
      "name": "Material.015",
      "pbrMetallicRoughness": {
        "baseColorFactor": [
          0.6994307030269045,
          0.6994307030269045,
          0.6994307030269045,
          1.0
        ],
        "baseColorTexture": {
          "index": 0
        },
        "metallicFactor": 0.46171569284782576
      }
    },
    {
      "doubleSided": true,
      "name": "Material.014",
      "pbrMetallicRoughness": {
        "baseColorTexture": {
          "index": 1
        },
        "metallicFactor": 0.0,
        "roughnessFactor": 0.5992368738647584
      }
    },
    {
      "doubleSided": true,
      "name": "Material.031",
      "pbrMetallicRoughness": {
        "baseColorFactor": [
          0.0,
          0.0,
          0.0,
          1.0
        ],
        "metallicFactor": 0.0
      }
    },
    {
      "doubleSided": true,
      "name": "Material.039",
      "pbrMetallicRoughness": {
        "baseColorTexture": {
          "index": 1
        },
        "metallicFactor": 0.0,
        "roughnessFactor": 0.9428887368483624
      }
    },
    {
      "doubleSided": true,
      "name": "Material.040",
      "pbrMetallicRoughness": {
        "baseColorTexture": {
          "index": 1
        },
        "metallicFactor": 0.0,
        "roughnessFactor": 0.9428887368483624
      }
    },
    {
      "doubleSided": true,
      "name": "material_0",
      "pbrMetallicRoughness": {
        "baseColorTexture": {
          "index": 1
        },
        "metallicFactor": 0.0,
        "roughnessFactor": 0.9428887368483624
      }
    },
    {
      "doubleSided": true,
      "name": "Material.022",
      "pbrMetallicRoughness": {
        "baseColorTexture": {
          "index": 1
        },
        "metallicFactor": 0.0,
        "roughnessFactor": 0.9517322204932788
      }
    },
    {
      "doubleSided": true,
      "name": "Material.002",
      "pbrMetallicRoughness": {
        "baseColorTexture": {
          "index": 1
        },
        "metallicFactor": 0.0,
        "roughnessFactor": 0.9428887368483624
      }
    },
    {
      "doubleSided": true,
      "name": "Material.003",
      "pbrMetallicRoughness": {
        "baseColorTexture": {
          "index": 1
        },
        "metallicFactor": 0.0,
        "roughnessFactor": 0.9428887368483624
      }
    },
    {
      "doubleSided": true,
      "name": "Material.004",
      "pbrMetallicRoughness": {
        "baseColorTexture": {
          "index": 1
        },
        "metallicFactor": 0.0,
        "roughnessFactor": 0.9428887930970353
      }
    },
    {
      "doubleSided": true,
      "name": "Material.008",
      "pbrMetallicRoughness": {
        "baseColorTexture": {
          "index": 1
        },
        "metallicFactor": 0.0,
        "roughnessFactor": 0.9428887368483624
      }
    },
    {
      "doubleSided": true,
      "name": "Material.009",
      "pbrMetallicRoughness": {
        "baseColorTexture": {
          "index": 1
        },
        "metallicFactor": 0.0,
        "roughnessFactor": 0.9428887368483624
      }
    },
    {
      "doubleSided": true,
      "name": "Material.023",
      "pbrMetallicRoughness": {
        "baseColorTexture": {
          "index": 1
        },
        "metallicFactor": 0.0,
        "roughnessFactor": 0.9517322204932788
      }
    },
    {
      "doubleSided": true,
      "name": "Material.010",
      "pbrMetallicRoughness": {
        "baseColorTexture": {
          "index": 1
        },
        "metallicFactor": 0.0,
        "roughnessFactor": 0.9428887368483624
      }
    },
    {
      "doubleSided": true,
      "name": "Material.024",
      "pbrMetallicRoughness": {
        "baseColorTexture": {
          "index": 1
        },
        "metallicFactor": 0.0,
        "roughnessFactor": 0.9517322204932788
      }
    },
    {
      "doubleSided": true,
      "name": "Material.011",
      "pbrMetallicRoughness": {
        "baseColorTexture": {
          "index": 1
        },
        "metallicFactor": 0.0,
        "roughnessFactor": 0.9428887368483624
      }
    },
    {
      "doubleSided": true,
      "name": "Material.012",
      "pbrMetallicRoughness": {
        "baseColorTexture": {
          "index": 1
        },
        "metallicFactor": 0.0,
        "roughnessFactor": 0.9428887368483624
      }
    },
    {
      "doubleSided": true,
      "name": "Material.013",
      "pbrMetallicRoughness": {
        "baseColorTexture": {
          "index": 1
        },
        "metallicFactor": 0.0,
        "roughnessFactor": 0.9428887368483624
      }
    },
    {
      "doubleSided": true,
      "name": "Material.018",
      "pbrMetallicRoughness": {
        "baseColorTexture": {
          "index": 1
        },
        "metallicFactor": 0.0,
        "roughnessFactor": 0.9517322204932788
      }
    },
    {
      "doubleSided": true,
      "name": "Material.017",
      "pbrMetallicRoughness": {
        "baseColorTexture": {
          "index": 1
        },
        "metallicFactor": 0.0,
        "roughnessFactor": 0.9517322204932788
      }
    },
    {
      "doubleSided": true,
      "name": "Material.016",
      "pbrMetallicRoughness": {
        "baseColorTexture": {
          "index": 1
        },
        "metallicFactor": 0.0,
        "roughnessFactor": 0.9428887930970353
      }
    },
    {
      "doubleSided": true,
      "name": "Material.019",
      "pbrMetallicRoughness": {
        "baseColorTexture": {
          "index": 1
        },
        "metallicFactor": 0.0,
        "roughnessFactor": 0.9428887930970353
      }
    },
    {
      "doubleSided": true,
      "name": "Material.020",
      "pbrMetallicRoughness": {
        "baseColorTexture": {
          "index": 1
        },
        "metallicFactor": 0.0,
        "roughnessFactor": 0.9428887930970353
      }
    },
    {
      "doubleSided": true,
      "name": "Material.021",
      "pbrMetallicRoughness": {
        "baseColorTexture": {
          "index": 1
        },
        "metallicFactor": 0.0,
        "roughnessFactor": 0.9428887930970353
      }
    },
    {
      "doubleSided": true,
      "name": "Material.005",
      "pbrMetallicRoughness": {
        "baseColorTexture": {
          "index": 1
        },
        "metallicFactor": 0.0,
        "roughnessFactor": 0.9517322204932788
      }
    },
    {
      "doubleSided": true,
      "name": "Material.006",
      "pbrMetallicRoughness": {
        "baseColorTexture": {
          "index": 1
        },
        "metallicFactor": 0.0,
        "roughnessFactor": 0.9517322204932788
      }
    },
    {
      "doubleSided": true,
      "name": "Material.007",
      "pbrMetallicRoughness": {
        "baseColorTexture": {
          "index": 1
        },
        "metallicFactor": 0.0,
        "roughnessFactor": 0.9517322204932788
      }
    },
    {
      "doubleSided": true,
      "name": "Material.025",
      "pbrMetallicRoughness": {
        "baseColorTexture": {
          "index": 1
        },
        "metallicFactor": 0.0,
        "roughnessFactor": 0.9517322204932788
      }
    },
    {
      "doubleSided": true,
      "name": "Material.027",
      "pbrMetallicRoughness": {
        "baseColorTexture": {
          "index": 1
        },
        "metallicFactor": 0.0,
        "roughnessFactor": 0.9517322204932788
      }
    },
    {
      "doubleSided": true,
      "name": "Material.032",
      "pbrMetallicRoughness": {
        "baseColorTexture": {
          "index": 1
        },
        "metallicFactor": 0.0,
        "roughnessFactor": 0.9517322204932788
      }
    },
    {
      "doubleSided": true,
      "name": "Material.026",
      "pbrMetallicRoughness": {
        "baseColorFactor": [
          0.21586,
          0.21586,
          0.215861,
          1.0
        ],
        "metallicFactor": 0.0,
        "roughnessFactor": 0.9428887930970353
      }
    },
    {
      "doubleSided": true,
      "name": "Material.028",
      "pbrMetallicRoughness": {
        "baseColorTexture": {
          "index": 1
        },
        "metallicFactor": 0.0,
        "roughnessFactor": 0.9517322204932788
      }
    },
    {
      "doubleSided": true,
      "name": "Material.029",
      "pbrMetallicRoughness": {
        "baseColorTexture": {
          "index": 1
        },
        "metallicFactor": 0.0,
        "roughnessFactor": 0.9517322204932788
      }
    },
    {
      "doubleSided": true,
      "name": "Material.030",
      "pbrMetallicRoughness": {
        "baseColorTexture": {
          "index": 1
        },
        "metallicFactor": 0.0,
        "roughnessFactor": 0.9517322204932788
      }
    },
    {
      "doubleSided": true,
      "name": "Material.033",
      "pbrMetallicRoughness": {
        "baseColorFactor": [
          0.21586,
          0.21586,
          0.215861,
          1.0
        ],
        "metallicFactor": 0.0,
        "roughnessFactor": 0.9517322204932788
      }
    },
    {
      "doubleSided": true,
      "name": "Material.034",
      "pbrMetallicRoughness": {
        "baseColorFactor": [
          0.0,
          0.0,
          0.0,
          1.0
        ],
        "metallicFactor": 0.0
      }
    }
  ],
  "meshes": [
    {
      "name": "Cylinder_Material.015_0",
      "primitives": [
        {
          "attributes": {
            "NORMAL": 1,
            "POSITION": 0,
            "TEXCOORD_0": 2
          },
          "indices": 3,
          "material": 0,
          "mode": 4
        }
      ]
    },
    {
      "name": "Cylinder_Material.014_0",
      "primitives": [
        {
          "attributes": {
            "NORMAL": 5,
            "POSITION": 4,
            "TEXCOORD_0": 6
          },
          "indices": 7,
          "material": 1,
          "mode": 4
        }
      ]
    },
    {
      "name": "Cylinder_Material.031_0",
      "primitives": [
        {
          "attributes": {
            "NORMAL": 9,
            "POSITION": 8,
            "TEXCOORD_0": 10
          },
          "indices": 11,
          "material": 2,
          "mode": 4
        }
      ]
    },
    {
      "name": "Cylinder.003_Material.039_0",
      "primitives": [
        {
          "attributes": {
            "NORMAL": 13,
            "POSITION": 12,
            "TEXCOORD_0": 14
          },
          "indices": 15,
          "material": 3,
          "mode": 4
        }
      ]
    },
    {
      "name": "Cylinder.002_Material.040_0",
      "primitives": [
        {
          "attributes": {
            "NORMAL": 17,
            "POSITION": 16,
            "TEXCOORD_0": 18
          },
          "indices": 19,
          "material": 4,
          "mode": 4
        }
      ]
    },
    {
      "name": "Cube_Material.001_0",
      "primitives": [
        {
          "attributes": {
            "NORMAL": 21,
            "POSITION": 20,
            "TEXCOORD_0": 22
          },
          "indices": 23,
          "material": 5,
          "mode": 4
        }
      ]
    },
    {
      "name": "Cylinder.001_Material.022_0",
      "primitives": [
        {
          "attributes": {
            "NORMAL": 25,
            "POSITION": 24,
            "TEXCOORD_0": 26
          },
          "indices": 27,
          "material": 6,
          "mode": 4
        }
      ]
    },
    {
      "name": "Cylinder.004_Material.002_0",
      "primitives": [
        {
          "attributes": {
            "NORMAL": 29,
            "POSITION": 28,
            "TEXCOORD_0": 30
          },
          "indices": 31,
          "material": 7,
          "mode": 4
        }
      ]
    },
    {
      "name": "Cylinder.005_Material.003_0",
      "primitives": [
        {
          "attributes": {
            "NORMAL": 33,
            "POSITION": 32,
            "TEXCOORD_0": 34
          },
          "indices": 35,
          "material": 8,
          "mode": 4
        }
      ]
    },
    {
      "name": "Cube.001_Material.004_0",
      "primitives": [
        {
          "attributes": {
            "NORMAL": 37,
            "POSITION": 36,
            "TEXCOORD_0": 38
          },
          "indices": 39,
          "material": 9,
          "mode": 4
        }
      ]
    },
    {
      "name": "Cylinder.006_Material.008_0",
      "primitives": [
        {
          "attributes": {
            "NORMAL": 41,
            "POSITION": 40,
            "TEXCOORD_0": 42
          },
          "indices": 43,
          "material": 10,
          "mode": 4
        }
      ]
    },
    {
      "name": "Cylinder.007_Material.009_0",
      "primitives": [
        {
          "attributes": {
            "NORMAL": 45,
            "POSITION": 44,
            "TEXCOORD_0": 46
          },
          "indices": 47,
          "material": 11,
          "mode": 4
        }
      ]
    },
    {
      "name": "Cylinder.008_Material.023_0",
      "primitives": [
        {
          "attributes": {
            "NORMAL": 49,
            "POSITION": 48,
            "TEXCOORD_0": 50
          },
          "indices": 51,
          "material": 12,
          "mode": 4
        }
      ]
    },
    {
      "name": "Cube.002_Material.010_0",
      "primitives": [
        {
          "attributes": {
            "NORMAL": 53,
            "POSITION": 52,
            "TEXCOORD_0": 54
          },
          "indices": 55,
          "material": 13,
          "mode": 4
        }
      ]
    },
    {
      "name": "Cylinder.009_Material.024_0",
      "primitives": [
        {
          "attributes": {
            "NORMAL": 57,
            "POSITION": 56,
            "TEXCOORD_0": 58
          },
          "indices": 59,
          "material": 14,
          "mode": 4
        }
      ]
    },
    {
      "name": "Cylinder.010_Material.011_0",
      "primitives": [
        {
          "attributes": {
            "NORMAL": 61,
            "POSITION": 60,
            "TEXCOORD_0": 62
          },
          "indices": 63,
          "material": 15,
          "mode": 4
        }
      ]
    },
    {
      "name": "Cylinder.011_Material.012_0",
      "primitives": [
        {
          "attributes": {
            "NORMAL": 65,
            "POSITION": 64,
            "TEXCOORD_0": 66
          },
          "indices": 67,
          "material": 16,
          "mode": 4
        }
      ]
    },
    {
      "name": "Cube.003_Material.013_0",
      "primitives": [
        {
          "attributes": {
            "NORMAL": 69,
            "POSITION": 68,
            "TEXCOORD_0": 70
          },
          "indices": 71,
          "material": 17,
          "mode": 4
        }
      ]
    },
    {
      "name": "Cube.004_Material.018_0",
      "primitives": [
        {
          "attributes": {
            "NORMAL": 73,
            "POSITION": 72,
            "TEXCOORD_0": 74
          },
          "indices": 75,
          "material": 18,
          "mode": 4
        }
      ]
    },
    {
      "name": "Cube.005_Material.017_0",
      "primitives": [
        {
          "attributes": {
            "NORMAL": 77,
            "POSITION": 76,
            "TEXCOORD_0": 78
          },
          "indices": 79,
          "material": 19,
          "mode": 4
        }
      ]
    },
    {
      "name": "Cube.006_Material.016_0",
      "primitives": [
        {
          "attributes": {
            "NORMAL": 81,
            "POSITION": 80,
            "TEXCOORD_0": 82
          },
          "indices": 83,
          "material": 20,
          "mode": 4
        }
      ]
    },
    {
      "name": "Cube.007_Material.019_0",
      "primitives": [
        {
          "attributes": {
            "NORMAL": 85,
            "POSITION": 84,
            "TEXCOORD_0": 86
          },
          "indices": 87,
          "material": 21,
          "mode": 4
        }
      ]
    },
    {
      "name": "Cube.008_Material.020_0",
      "primitives": [
        {
          "attributes": {
            "NORMAL": 89,
            "POSITION": 88,
            "TEXCOORD_0": 90
          },
          "indices": 91,
          "material": 22,
          "mode": 4
        }
      ]
    },
    {
      "name": "Cube.009_Material.021_0",
      "primitives": [
        {
          "attributes": {
            "NORMAL": 93,
            "POSITION": 92,
            "TEXCOORD_0": 94
          },
          "indices": 95,
          "material": 23,
          "mode": 4
        }
      ]
    },
    {
      "name": "Cube.010_Material.005_0",
      "primitives": [
        {
          "attributes": {
            "NORMAL": 97,
            "POSITION": 96,
            "TEXCOORD_0": 98
          },
          "indices": 99,
          "material": 24,
          "mode": 4
        }
      ]
    },
    {
      "name": "Cube.011_Material.006_0",
      "primitives": [
        {
          "attributes": {
            "NORMAL": 101,
            "POSITION": 100,
            "TEXCOORD_0": 102
          },
          "indices": 103,
          "material": 25,
          "mode": 4
        }
      ]
    },
    {
      "name": "Cube.012_Material.007_0",
      "primitives": [
        {
          "attributes": {
            "NORMAL": 105,
            "POSITION": 104,
            "TEXCOORD_0": 106
          },
          "indices": 107,
          "material": 26,
          "mode": 4
        }
      ]
    },
    {
      "name": "Cube.013_Material.025_0",
      "primitives": [
        {
          "attributes": {
            "NORMAL": 109,
            "POSITION": 108,
            "TEXCOORD_0": 110
          },
          "indices": 111,
          "material": 27,
          "mode": 4
        }
      ]
    },
    {
      "name": "Sphere_Material.027_0",
      "primitives": [
        {
          "attributes": {
            "NORMAL": 113,
            "POSITION": 112,
            "TEXCOORD_0": 114
          },
          "indices": 115,
          "material": 28,
          "mode": 4
        }
      ]
    },
    {
      "name": "Sphere.001_Material.032_0",
      "primitives": [
        {
          "attributes": {
            "NORMAL": 117,
            "POSITION": 116,
            "TEXCOORD_0": 118
          },
          "indices": 119,
          "material": 29,
          "mode": 4
        }
      ]
    },
    {
      "name": "Cylinder.012_Material.026_0",
      "primitives": [
        {
          "attributes": {
            "NORMAL": 121,
            "POSITION": 120,
            "TEXCOORD_0": 122
          },
          "indices": 123,
          "material": 30,
          "mode": 4
        }
      ]
    },
    {
      "name": "Cube.014_Material.028_0",
      "primitives": [
        {
          "attributes": {
            "NORMAL": 125,
            "POSITION": 124,
            "TEXCOORD_0": 126
          },
          "indices": 127,
          "material": 31,
          "mode": 4
        }
      ]
    },
    {
      "name": "Cube.015_Material.029_0",
      "primitives": [
        {
          "attributes": {
            "NORMAL": 129,
            "POSITION": 128,
            "TEXCOORD_0": 130
          },
          "indices": 131,
          "material": 32,
          "mode": 4
        }
      ]
    },
    {
      "name": "Cube.016_Material.030_0",
      "primitives": [
        {
          "attributes": {
            "NORMAL": 133,
            "POSITION": 132,
            "TEXCOORD_0": 134
          },
          "indices": 135,
          "material": 33,
          "mode": 4
        }
      ]
    },
    {
      "name": "Cylinder.013_Material.033_0",
      "primitives": [
        {
          "attributes": {
            "NORMAL": 137,
            "POSITION": 136,
            "TEXCOORD_0": 138
          },
          "indices": 139,
          "material": 34,
          "mode": 4
        }
      ]
    },
    {
      "name": "Cylinder.013_Material.034_0",
      "primitives": [
        {
          "attributes": {
            "NORMAL": 141,
            "POSITION": 140,
            "TEXCOORD_0": 142
          },
          "indices": 143,
          "material": 35,
          "mode": 4
        }
      ]
    }
  ],
  "nodes": [
    {
      "children": [
        1
      ],
      "matrix": [
        1.0,
        0.0,
        0.0,
        0.0,
        0.0,
        2.220446049250313e-16,
        -1.0,
        0.0,
        0.0,
        1.0,
        2.220446049250313e-16,
        0.0,
        0.0,
        0.0,
        0.0,
        1.0
      ],
      "name": "Sketchfab_model"
    },
    {
      "children": [
        2
      ],
      "matrix": [
        0.009999999776482582,
        0.0,
        0.0,
        0.0,
        0.0,
        0.0,
        0.009999999776482582,
        0.0,
        0.0,
        -0.009999999776482582,
        0.0,
        0.0,
        0.0,
        0.0,
        0.0,
        1.0
      ],
      "name": "67bcbe251fee4ce99ab7d63501d662dc.fbx"
    },
    {
      "children": [
        3,
        6,
        8,
        12,
        14,
        16,
        18,
        20,
        22,
        24,
        26,
        28,
        30,
        32,
        34,
        36,
        38,
        40,
        42,
        44,
        46,
        48,
        50,
        52,
        54,
        56,
        58,
        60,
        62,
        64,
        66,
        68,
        70,
        72,
        74
      ],
      "name": "RootNode"
    },
    {
      "children": [
        4
      ],
      "matrix": [
        -29.08647719990347,
        -5.518906457566863,
        -95.51711910171437,
        0.0,
        56.63930913109449,
        79.46723428563203,
        -21.83912397841966,
        0.0,
        77.11008775993375,
        -60.45246356562044,
        -19.98834696773717,
        0.0,
        407.6245422363281,
        590.38623046875,
        -100.54539489746094,
        1.0
      ],
      "name": "Light"
    },
    {
      "children": [
        5
      ],
      "matrix": [
        1.0,
        0.0,
        0.0,
        0.0,
        0.0,
        2.220446049250313e-16,
        1.0,
        0.0,
        0.0,
        -1.0,
        2.220446049250313e-16,
        0.0,
        0.0,
        0.0,
        0.0,
        1.0
      ],
      "name": "Object_4"
    },
    {
      "name": "Object_5"
    },
    {
      "children": [
        7
      ],
      "matrix": [
        -65.15581009765468,
        -44.527143038140764,
        -61.41704928909654,
        0.0,
        -32.40135466989878,
        89.5395708958271,
        -30.542085476036902,
        0.0,
        68.59207001076176,
        1.2755314797120858e-05,
        -72.76761921184276,
        0.0,
        735.88916015625,
        495.8309326171875,
        692.5791015625,
        1.0
      ],
      "name": "Camera"
    },
    {
      "name": "Object_7"
    },
    {
      "children": [
        9,
        10,
        11
      ],
      "matrix": [
        454.5626220703125,
        0.0,
        0.0,
        0.0,
        -0.0,
        -8.079016134457953e-05,
        -495.88647460936846,
        0.0,
        0.0,
        99.99999999999868,
        -1.629206793918314e-05,
        0.0,
        -80.16941833496094,
        595.4111328125,
        1.3195151041145436e-05,
        1.0
      ],
      "name": "Cylinder"
    },
    {
      "mesh": 0,
      "name": "Cylinder_Material.015_0"
    },
    {
      "mesh": 1,
      "name": "Cylinder_Material.014_0"
    },
    {
      "mesh": 2,
      "name": "Cylinder_Material.031_0"
    },
    {
      "children": [
        13
      ],
      "matrix": [
        1.2487108465081132e-06,
        16.53967666625972,
        -1.1843960756305393e-13,
        0.0,
        2.8443587524403768e-06,
        -9.303784142839638e-14,
        17.458549499511488,
        0.0,
        36.75484085082949,
        -2.7749132843224894e-06,
        -5.988123666839518e-06,
        0.0,
        1130.6702880859375,
        757.6134033203125,
        -50.5878791809082,
        1.0
      ],
      "name": "Cylinder.003"
    },
    {
      "mesh": 3,
      "name": "Cylinder.003_Material.039_0"
    },
    {
      "children": [
        15
      ],
      "matrix": [
        1.3180838153149349e-06,
        17.45854949951167,
        -1.2501959941940764e-13,
        0.0,
        2.8443587524403768e-06,
        -9.303784142839638e-14,
        17.458549499511488,
        0.0,
        36.75484085082949,
        -2.7749132843224894e-06,
        -5.988123666839518e-06,
        0.0,
        1130.6702880859375,
        757.6134033203125,
        55.8647575378418,
        1.0
      ],
      "name": "Cylinder.002"
    },
    {
      "mesh": 4,
      "name": "Cylinder.002_Material.040_0"
    },
    {
      "children": [
        17
      ],
      "matrix": [
        -58.03396224975519,
        7.107111689294091e-15,
        8.762884504715598e-06,
        0.0,
        1.7087622912184766e-05,
        8.5438114994189e-06,
        113.16621398925619,
        0.0,
        -3.272361323615701e-13,
        29.016981124877844,
        -2.190721130845194e-06,
        0.0,
        1094.0267333984375,
        725.2656860351563,
        3.04069185256958,
        1.0
      ],
      "name": "Cube"
    },
    {
      "mesh": 5,
      "name": "Cube_Material.001_0"
    },
    {
      "children": [
        19
      ],
      "matrix": [
        198.86602783203125,
        0.0,
        0.0,
        0.0,
        0.0,
        -3.2399388362349386e-05,
        -198.86602783202864,
        0.0,
        0.0,
        16.71723747253396,
        -2.723583686579851e-06,
        0.0,
        1554.922119140625,
        590.7550048828125,
        0.0,
        1.0
      ],
      "name": "Cylinder.001"
    },
    {
      "mesh": 6,
      "name": "Cylinder.001_Material.022_0"
    },
    {
      "children": [
        21
      ],
      "matrix": [
        1.2487108465081132e-06,
        16.53967666625972,
        -1.1843960756305393e-13,
        0.0,
        2.8443587524403768e-06,
        -9.303784142839638e-14,
        17.458549499511488,
        0.0,
        36.75484085082949,
        -2.7749132843224894e-06,
        -5.988123666839518e-06,
        0.0,
        1706.0245361328125,
        676.3007202148438,
        -50.5878791809082,
        1.0
      ],
      "name": "Cylinder.004"
    },
    {
      "mesh": 7,
      "name": "Cylinder.004_Material.002_0"
    },
    {
      "children": [
        23
      ],
      "matrix": [
        1.3180838153149349e-06,
        17.45854949951167,
        -1.2501959941940764e-13,
        0.0,
        2.8443587524403768e-06,
        -9.303784142839638e-14,
        17.458549499511488,
        0.0,
        36.75484085082949,
        -2.7749132843224894e-06,
        -5.988123666839518e-06,
        0.0,
        1706.0245361328125,
        676.3007202148438,
        55.8647575378418,
        1.0
      ],
      "name": "Cylinder.005"
    },
    {
      "mesh": 8,
      "name": "Cylinder.005_Material.003_0"
    },
    {
      "children": [
        25
      ],
      "matrix": [
        -58.03396224975519,
        7.107111689294091e-15,
        8.762884504715598e-06,
        0.0,
        1.7087622912184766e-05,
        8.5438114994189e-06,
        113.16621398925619,
        0.0,
        -3.272361323615701e-13,
        29.016981124877844,
        -2.190721130845194e-06,
        0.0,
        1669.381103515625,
        643.9530029296875,
        3.04069185256958,
        1.0
      ],
      "name": "Cube.001"
    },
    {
      "mesh": 9,
      "name": "Cube.001_Material.004_0"
    },
    {
      "children": [
        27
      ],
      "matrix": [
        -7.631374709855814e-07,
        17.458549499511673,
        -1.0406106431502581e-06,
        0.0,
        -1.3180837755800234e-06,
        -1.0406107032371974e-06,
        -17.45854949951164,
        0.0,
        -36.75484085082994,
        -1.6066050239536247e-06,
        2.7749132884030964e-06,
        0.0,
        -1499.9918212890625,
        676.3007202148438,
        -51.705963134765625,
        1.0
      ],
      "name": "Cylinder.006"
    },
    {
      "mesh": 10,
      "name": "Cylinder.006_Material.008_0"
    },
    {
      "children": [
        29
      ],
      "matrix": [
        -7.229722619488935e-07,
        16.539676666259723,
        -9.858415542285034e-07,
        0.0,
        -1.3180837755800234e-06,
        -1.0406107032371974e-06,
        -17.45854949951164,
        0.0,
        -36.75484085082994,
        -1.6066050239536247e-06,
        2.7749132884030964e-06,
        0.0,
        -1499.9918212890625,
        676.3007202148438,
        54.74666213989258,
        1.0
      ],
      "name": "Cylinder.007"
    },
    {
      "mesh": 11,
      "name": "Cylinder.007_Material.009_0"
    },
    {
      "children": [
        31
      ],
      "matrix": [
        -198.86602783202895,
        2.435406813903111e-14,
        3.002793478591027e-05,
        0.0,
        3.0027934785910186e-05,
        1.5013967469092415e-05,
        198.8660278320284,
        0.0,
        -1.8852699082441188e-13,
        16.71723747253413,
        -1.2621163181251439e-06,
        0.0,
        -1348.889404296875,
        590.7550048828125,
        4.158775329589844,
        1.0
      ],
      "name": "Cylinder.008"
    },
    {
      "mesh": 12,
      "name": "Cylinder.008_Material.023_0"
    },
    {
      "children": [
        33
      ],
      "matrix": [
        58.03396224975421,
        1.5361461901642347e-21,
        -1.3836376468644786e-05,
        0.0,
        -2.698093115799884e-05,
        -1.843711646733126e-05,
        -113.1662139892531,
        0.0,
        -1.1271159277305452e-12,
        29.016981124877542,
        -4.72746627876506e-06,
        0.0,
        -1463.348388671875,
        643.9530029296875,
        1.118093490600586,
        1.0
      ],
      "name": "Cube.002"
    },
    {
      "mesh": 13,
      "name": "Cube.002_Material.010_0"
    },
    {
      "children": [
        35
      ],
      "matrix": [
        -198.86602783202895,
        2.435406813903111e-14,
        3.002793478591027e-05,
        0.0,
        3.0027934785910186e-05,
        1.5013967469092415e-05,
        198.8660278320284,
        0.0,
        -1.8852699082441188e-13,
        16.71723747253413,
        -1.2621163181251439e-06,
        0.0,
        -868.635009765625,
        695.7611083984375,
        4.158775329589844,
        1.0
      ],
      "name": "Cylinder.009"
    },
    {
      "mesh": 14,
      "name": "Cylinder.009_Material.024_0"
    },
    {
      "children": [
        37
      ],
      "matrix": [
        -7.229722619488935e-07,
        16.539676666259723,
        -9.858415542285034e-07,
        0.0,
        -1.3180837755800234e-06,
        -1.0406107032371974e-06,
        -17.45854949951164,
        0.0,
        -36.75484085082994,
        -1.6066050239536247e-06,
        2.7749132884030964e-06,
        0.0,
        -1019.7374267578125,
        781.3068237304688,
        54.74666213989258,
        1.0
      ],
      "name": "Cylinder.010"
    },
    {
      "mesh": 15,
      "name": "Cylinder.010_Material.011_0"
    },
    {
      "children": [
        39
      ],
      "matrix": [
        -7.631374709855814e-07,
        17.458549499511673,
        -1.0406106431502581e-06,
        0.0,
        -1.3180837755800234e-06,
        -1.0406107032371974e-06,
        -17.45854949951164,
        0.0,
        -36.75484085082994,
        -1.6066050239536247e-06,
        2.7749132884030964e-06,
        0.0,
        -1019.7374267578125,
        781.3068237304688,
        -51.705963134765625,
        1.0
      ],
      "name": "Cylinder.011"
    },
    {
      "mesh": 16,
      "name": "Cylinder.011_Material.012_0"
    },
    {
      "children": [
        41
      ],
      "matrix": [
        58.03396224975421,
        1.5361461901642347e-21,
        -1.3836376468644786e-05,
        0.0,
        -2.698093115799884e-05,
        -1.843711646733126e-05,
        -113.1662139892531,
        0.0,
        -1.1271159277305452e-12,
        29.016981124877542,
        -4.72746627876506e-06,
        0.0,
        -983.093994140625,
        748.9590454101563,
        1.118093490600586,
        1.0
      ],
      "name": "Cube.003"
    },
    {
      "mesh": 17,
      "name": "Cube.003_Material.013_0"
    },
    {
      "children": [
        43
      ],
      "matrix": [
        18.887310028076172,
        0.0,
        0.0,
        0.0,
        0.0,
        -4.822984791708669e-06,
        -29.603269577025976,
        0.0,
        0.0,
        34.588428497314,
        -5.635170269878253e-06,
        0.0,
        586.4494018554688,
        989.6815185546875,
        1.0452276468276978,
        1.0
      ],
      "name": "Cube.004"
    },
    {
      "mesh": 18,
      "name": "Cube.004_Material.018_0"
    },
    {
      "children": [
        45
      ],
      "matrix": [
        18.887310028076172,
        0.0,
        0.0,
        0.0,
        0.0,
        -4.822984791708669e-06,
        -29.603269577025976,
        0.0,
        0.0,
        34.588428497314,
        -5.635170269878253e-06,
        0.0,
        220.07000732421875,
        1214.5084228515625,
        1.0452276468276978,
        1.0
      ],
      "name": "Cube.005"
    },
    {
      "mesh": 19,
      "name": "Cube.005_Material.017_0"
    },
    {
      "children": [
        47
      ],
      "matrix": [
        27.95905142910395,
        0.0,
        -15.559019241642568,
        0.0,
        -15.559019241642554,
        -1.3986221645468843e-06,
        -27.959051429103926,
        0.0,
        -6.801063566573963e-07,
        31.99674415588376,
        -1.2221290015307214e-06,
        0.0,
        897.5375366210938,
        647.6361083984375,
        -380.0,
        1.0
      ],
      "name": "Cube.006"
    },
    {
      "mesh": 20,
      "name": "Cube.006_Material.016_0"
    },
    {
      "children": [
        49
      ],
      "matrix": [
        27.957865216287324,
        -2.664264155617695e-15,
        15.561150636279912,
        0.0,
        15.561150636279898,
        -1.3986221503374754e-06,
        -27.957865216287292,
        0.0,
        6.801995224225661e-07,
        31.996744155883757,
        -1.2220771442931964e-06,
        0.0,
        897.5375366210938,
        647.6361083984375,
        380.0,
        1.0
      ],
      "name": "Cube.007"
    },
    {
      "mesh": 21,
      "name": "Cube.007_Material.019_0"
    },
    {
      "children": [
        51
      ],
      "matrix": [
        27.957865216287324,
        -2.664264155617695e-15,
        15.561150636279912,
        0.0,
        15.561150636279898,
        -1.3986221503374754e-06,
        -27.957865216287292,
        0.0,
        6.801995224225661e-07,
        31.996744155883757,
        -1.2220771442931964e-06,
        0.0,
        249.57333374023438,
        647.6361083984375,
        380.0,
        1.0
      ],
      "name": "Cube.008"
    },
    {
      "mesh": 22,
      "name": "Cube.008_Material.020_0"
    },
    {
      "children": [
        53
      ],
      "matrix": [
        27.95905142910395,
        0.0,
        -15.559019241642568,
        0.0,
        -15.559019241642554,
        -1.3986221645468843e-06,
        -27.959051429103926,
        0.0,
        -6.801063566573963e-07,
        31.99674415588376,
        -1.2221290015307214e-06,
        0.0,
        249.57333374023438,
        647.6361083984375,
        -380.0,
        1.0
      ],
      "name": "Cube.009"
    },
    {
      "mesh": 23,
      "name": "Cube.009_Material.021_0"
    },
    {
      "children": [
        55
      ],
      "matrix": [
        20.6138858795166,
        0.0,
        0.0,
        0.0,
        0.0,
        -3.358428292396525e-06,
        -20.613885879516328,
        0.0,
        0.0,
        21.666872024535845,
        -3.5299815105332925e-06,
        0.0,
        576.1030883789063,
        733.8746337890625,
        -350.0,
        1.0
      ],
      "name": "Cube.010"
    },
    {
      "mesh": 24,
      "name": "Cube.010_Material.005_0"
    },
    {
      "children": [
        57
      ],
      "matrix": [
        20.6138858795166,
        0.0,
        0.0,
        0.0,
        -0.0,
        -3.358428292396525e-06,
        -20.613885879516328,
        0.0,
        0.0,
        21.666872024535845,
        -3.5299815105332925e-06,
        0.0,
        -175.6416778564453,
        733.8746337890625,
        -350.0,
        1.0
      ],
      "name": "Cube.011"
    },
    {
      "mesh": 25,
      "name": "Cube.011_Material.006_0"
    },
    {
      "children": [
        59
      ],
      "matrix": [
        20.6138858795166,
        0.0,
        0.0,
        0.0,
        -0.0,
        -3.358428292396525e-06,
        -20.613885879516328,
        0.0,
        0.0,
        21.666872024535845,
        -3.5299815105332925e-06,
        0.0,
        -175.6416778564453,
        733.8746337890625,
        350.0,
        1.0
      ],
      "name": "Cube.012"
    },
    {
      "mesh": 26,
      "name": "Cube.012_Material.007_0"
    },
    {
      "children": [
        61
      ],
      "matrix": [
        20.6138858795166,
        0.0,
        0.0,
        0.0,
        0.0,
        -3.358428292396525e-06,
        -20.613885879516328,
        0.0,
        0.0,
        21.666872024535845,
        -3.5299815105332925e-06,
        0.0,
        576.1030883789063,
        733.8746337890625,
        350.0,
        1.0
      ],
      "name": "Cube.013"
    },
    {
      "mesh": 27,
      "name": "Cube.013_Material.025_0"
    },
    {
      "children": [
        63
      ],
      "matrix": [
        53.59870910644531,
        0.0,
        0.0,
        0.0,
        0.0,
        -8.732338102147212e-06,
        -53.5987091064446,
        0.0,
        0.0,
        53.5987091064446,
        -8.732338102147212e-06,
        0.0,
        291.9304504394531,
        850.1834716796875,
        -192.14794921875,
        1.0
      ],
      "name": "Sphere"
    },
    {
      "mesh": 28,
      "name": "Sphere_Material.027_0"
    },
    {
      "children": [
        65
      ],
      "matrix": [
        53.59870910644531,
        0.0,
        0.0,
        0.0,
        0.0,
        -8.732338102147212e-06,
        -53.5987091064446,
        0.0,
        0.0,
        53.5987091064446,
        -8.732338102147212e-06,
        0.0,
        291.9304504394531,
        850.1834716796875,
        192.14999389648438,
        1.0
      ],
      "name": "Sphere.001"
    },
    {
      "mesh": 29,
      "name": "Sphere.001_Material.032_0"
    },
    {
      "children": [
        67
      ],
      "matrix": [
        454.5626220703125,
        0.0,
        0.0,
        0.0,
        -0.0,
        -8.079016134457953e-05,
        -495.88647460936846,
        0.0,
        0.0,
        99.99999999999868,
        -1.629206793918314e-05,
        0.0,
        -176.4356231689453,
        1204.53125,
        1.4826551705482416e-05,
        1.0
      ],
      "name": "Cylinder.012"
    },
    {
      "mesh": 30,
      "name": "Cylinder.012_Material.026_0"
    },
    {
      "children": [
        69
      ],
      "matrix": [
        18.887310028076172,
        0.0,
        0.0,
        0.0,
        -0.0,
        -4.822984791708669e-06,
        -29.603269577025976,
        0.0,
        0.0,
        34.588428497314,
        -5.635170269878253e-06,
        0.0,
        -501.9042053222656,
        917.3492431640625,
        1.0452276468276978,
        1.0
      ],
      "name": "Cube.014"
    },
    {
      "mesh": 31,
      "name": "Cube.014_Material.028_0"
    },
    {
      "children": [
        71
      ],
      "matrix": [
        -20.613885879516364,
        2.524473319012492e-15,
        3.1126101708892282e-06,
        0.0,
        3.1126101708892197e-06,
        1.5563050933367883e-06,
        20.613885879516307,
        0.0,
        -2.4434600425344084e-13,
        21.66687202453607,
        -1.635803331132007e-06,
        0.0,
        -723.5448608398438,
        733.8746337890625,
        -200.0,
        1.0
      ],
      "name": "Cube.015"
    },
    {
      "mesh": 32,
      "name": "Cube.015_Material.029_0"
    },
    {
      "children": [
        73
      ],
      "matrix": [
        -20.613885879516364,
        2.524473319012492e-15,
        3.1126101708892282e-06,
        0.0,
        3.1126101708892197e-06,
        1.5563050933367883e-06,
        20.613885879516307,
        0.0,
        -2.4434600425344084e-13,
        21.66687202453607,
        -1.635803331132007e-06,
        0.0,
        -723.5448608398438,
        733.8746337890625,
        200.0,
        1.0
      ],
      "name": "Cube.016"
    },
    {
      "mesh": 33,
      "name": "Cube.016_Material.030_0"
    },
    {
      "children": [
        75,
        76
      ],
      "matrix": [
        20.0,
        0.0,
        0.0,
        0.0,
        0.0,
        19.99999999999998,
        8.742278367890322e-07,
        0.0,
        0.0,
        -1.114640491906016e-05,
        254.99999999999974,
        0.0,
        -256.211669921875,
        767.9326782226563,
        0.0,
        1.0
      ],
      "name": "Cylinder.013"
    },
    {
      "mesh": 34,
      "name": "Cylinder.013_Material.033_0"
    },
    {
      "mesh": 35,
      "name": "Cylinder.013_Material.034_0"
    }
  ],
  "samplers": [
    {
      "magFilter": 9729,
      "minFilter": 9987,
      "wrapS": 10497,
      "wrapT": 10497
    }
  ],
  "scene": 0,
  "scenes": [
    {
      "name": "Sketchfab_Scene",
      "nodes": [
        0
      ]
    }
  ],
  "textures": [
    {
      "sampler": 0,
      "source": 0
    },
    {
      "sampler": 0,
      "source": 1
    }
  ]
}
