{
  "accessors": [
    {
      "bufferView": 3,
      "componentType": 5126,
      "count": 1810,
      "max": [
        1.2917217016220093,
        1.5759050846099854,
        2.6020874977111816
      ],
      "min": [
        -1.3088434934616089,
        -1.2134461018192388e-14,
        -4.812490940093994
      ],
      "type": "VEC3"
    },
    {
      "bufferView": 3,
      "byteOffset": 21720,
      "componentType": 5126,
      "count": 1810,
      "max": [
        1.0,
        1.0,
        0.9652314186096191
      ],
      "min": [
        -1.0,
        -0.9999996423721313,
        -0.961755096912384
      ],
      "type": "VEC3"
    },
    {
      "bufferView": 4,
      "componentType": 5126,
      "count": 1810,
      "max": [
        1.0,
        0.9999953508377075,
        0.9973093867301941,
        1.0
      ],
      "min": [
        -0.9109177589416504,
        -0.9827991127967834,
        -0.9999997615814209,
        -1.0
      ],
      "type": "VEC4"
    },
    {
      "bufferView": 2,
      "componentType": 5126,
      "count": 1810,
      "max": [
        0.997344970703125,
        0.9973487854003906
      ],
      "min": [
        0.002655002987012267,
        0.0026512283366173506
      ],
      "type": "VEC2"
    },
    {
      "bufferView": 1,
      "componentType": 5125,
      "count": 4464,
      "type": "SCALAR"
    },
    {
      "bufferView": 5,
      "componentType": 5126,
      "count": 47,
      "max": [
        100.0,
        1.0,
        1.346761848708411e-07,
        0.0,
        1.2010049665932623e-14,
        100.0,
        1.0,
        0.0,
        1.0,
        0.0,
        100.0,
        0.0,
        1.8136506080627441,
        0.06100008264183998,
        0.40604811906814575,
        1.0
      ],
      "min": [
        2.1190230015122324e-08,
        -1.0,
        -8.155160032517761e-14,
        0.0,
        -1.346761848708411e-07,
        -1.1929176654194677e-14,
        0.0,
        0.0,
        -1.0,
        -1.0,
        -2.527820078673948e-22,
        0.0,
        -1.8136506080627441,
        -1.0584648847579956,
        -1.2400957345962524,
        1.0
      ],
      "type": "MAT4"
    },
    {
      "bufferView": 0,
      "componentType": 5123,
      "count": 1810,
      "type": "VEC4"
    },
    {
      "bufferView": 4,
      "byteOffset": 28960,
      "componentType": 5126,
      "count": 1810,
      "max": [
        1.0,
        0.0,
        0.0,
        0.0
      ],
      "min": [
        1.0,
        0.0,
        0.0,
        0.0
      ],
      "type": "VEC4"
    }
  ],
  "asset": {
    "extras": {
      "author": "Mr. The Rich (https://sketchfab.com/MrTheRich)",
      "license": "CC-BY-4.0 (http://creativecommons.org/licenses/by/4.0/)",
      "source": "https://sketchfab.com/3d-models/low-poly-t-72-tank-game-ready-8c9d0d6640a244e39082cd9fdf565cef",
      "title": "Low Poly T-72 Tank - Game Ready"
    },
    "generator": "Sketchfab-14.79.0",
    "version": "2.0"
  },
  "bufferViews": [
    {
      "buffer": 0,
      "byteLength": 14480,
      "byteStride": 8,
      "name": "shortBufferViews",
      "target": 34962
    },
    {
      "buffer": 0,
      "byteLength": 17856,
      "byteOffset": 14480,
      "name": "floatBufferViews",
      "target": 34963
    },
    {
      "buffer": 0,
      "byteLength": 14480,
      "byteOffset": 32336,
      "byteStride": 8,
      "name": "floatBufferViews",
      "target": 34962
    },
    {
      "buffer": 0,
      "byteLength": 43440,
      "byteOffset": 46816,
      "byteStride": 12,
      "name": "floatBufferViews",
      "target": 34962
    },
    {
      "buffer": 0,
      "byteLength": 57920,
      "byteOffset": 90256,
      "byteStride": 16,
      "name": "floatBufferViews",
      "target": 34962
    },
    {
      "buffer": 0,
      "byteLength": 3008,
      "byteOffset": 148176,
      "name": "floatBufferViews"
    }
  ],
  "buffers": [
    {
      "byteLength": 151184,
      "uri": "scene.bin"
    }
  ],
  "images": [
    {
      "uri": "textures/Tank_baseColor.png"
    },
    {
      "uri": "textures/Tank_metallicRoughness.png"
    },
    {
      "uri": "textures/Tank_normal.png"
    }
  ],
  "materials": [
    {
      "doubleSided": true,
      "name": "Tank",
      "normalTexture": {
        "index": 2
      },
      "pbrMetallicRoughness": {
        "baseColorTexture": {
          "index": 0
        },
        "metallicRoughnessTexture": {
          "index": 1
        }
      }
    }
  ],
  "meshes": [
    {
      "name": "T-27_Tank.003_Tank_0",
      "primitives": [
        {
          "attributes": {
            "JOINTS_0": 6,
            "NORMAL": 1,
            "POSITION": 0,
            "TANGENT": 2,
            "TEXCOORD_0": 3,
            "WEIGHTS_0": 7
          },
          "indices": 4,
          "material": 0,
          "mode": 4
        }
      ]
    }
  ],
  "nodes": [
    {
      "children": [
        1
      ],
      "matrix": [
        1.0,
        0.0,
        0.0,
        0.0,
        0.0,
        2.220446049250313e-16,
        -1.0,
        0.0,
        0.0,
        1.0,
        2.220446049250313e-16,
        0.0,
        0.0,
        0.0,
        0.0,
        1.0
      ],
      "name": "Sketchfab_model"
    },
    {
      "children": [
        2
      ],
      "matrix": [
        0.009999999776482582,
        0.0,
        0.0,
        0.0,
        0.0,
        0.0,
        0.009999999776482582,
        0.0,
        0.0,
        -0.009999999776482582,
        0.0,
        0.0,
        0.0,
        0.0,
        0.0,
        1.0
      ],
      "name": "fc13b525a78640cca57e5abea5c20bf3.fbx"
    },
    {
      "children": [
        3
      ],
      "name": "RootNode"
    },
    {
      "children": [
        4
      ],
      "matrix": [
        100.0,
        0.0,
        0.0,
        0.0,
        0.0,
        -1.629206793918314e-05,
        -99.99999999999868,
        0.0,
        0.0,
        99.99999999999868,
        -1.629206793918314e-05,
        0.0,
        0.0,
        0.0,
        0.0,
        1.0
      ],
      "name": "Tank_Rig"
    },
    {
      "children": [
        5,
        53,
        52
      ],
      "name": "Object_4"
    },
    {
      "children": [
        6,
        48,
        50
      ],
      "name": "_rootJoint"
    },
    {
      "children": [
        7
      ],
      "name": "Main_01",
      "rotation": [
        0.6834105253219604,
        -0.18152116239070892,
        -0.1815211921930313,
        0.6834107041358948
      ]
    },
    {
      "children": [
        8
      ],
      "name": "Right_02",
      "rotation": [
        9.735360606555332e-08,
        -1.3191836810205401e-14,
        1.2450743724912172e-07,
        1.0
      ],
      "translation": [
        1.2443925142288208,
        -5.9604580826544407e-08,
        1.1920928244535389e-07
      ]
    },
    {
      "children": [
        9
      ],
      "name": "Left_03",
      "rotation": [
        -2.6645352591003757e-15,
        -1.4901158529312397e-08,
        1.7763568394002505e-15,
        1.0
      ],
      "translation": [
        -2.48703670501709,
        2.9802322387695313e-08,
        1.1920928955078125e-07
      ]
    },
    {
      "children": [
        10
      ],
      "name": "Back_04",
      "rotation": [
        -1.2450743724912172e-07,
        2.2351763107053557e-08,
        -1.2450743724912172e-07,
        1.0
      ],
      "scale": [
        1.0,
        1.0,
        0.9999997615814209
      ],
      "translation": [
        1.2426443099975586,
        2.9802333756379085e-07,
        1.4258462190628052
      ]
    },
    {
      "children": [
        11
      ],
      "name": "Front_05",
      "rotation": [
        -1.5987211554602254e-14,
        7.450578820566989e-09,
        2.664535428506965e-14,
        1.0
      ],
      "scale": [
        0.9999999403953552,
        1.0,
        1.0
      ],
      "translation": [
        -5.960463056453591e-08,
        9.536742027194123e-07,
        -3.2774648666381836
      ]
    },
    {
      "children": [
        12,
        16,
        18,
        20,
        22,
        24,
        26,
        28,
        30,
        32,
        34,
        36,
        38,
        40,
        42,
        44,
        46
      ],
      "name": "All_06",
      "rotation": [
        -3.552713678800501e-15,
        7.450578820566989e-09,
        -1.7763568394002505e-15,
        1.0
      ],
      "scale": [
        0.9999999403953552,
        1.0,
        1.0
      ],
      "translation": [
        -4.729828262384217e-08,
        0.3514903783798218,
        1.8516193628311157
      ]
    },
    {
      "children": [
        13
      ],
      "name": "Turret_07",
      "rotation": [
        -0.683971643447876,
        0.1793951392173767,
        0.17939510941505432,
        0.6839719414710999
      ],
      "scale": [
        0.9999999403953552,
        0.9999998807907104,
        1.0
      ],
      "translation": [
        -1.2174465879866148e-09,
        0.7833244800567627,
        0.06100015342235565
      ]
    },
    {
      "children": [
        14
      ],
      "name": "Barrel_08",
      "rotation": [
        0.014934046193957329,
        -1.9195111278236254e-08,
        8.715122845615042e-09,
        0.9998884797096252
      ],
      "scale": [
        1.0,
        0.9999998211860657,
        1.0
      ],
      "translation": [
        4.938669917464722e-09,
        0.592765212059021,
        0.1227453425526619
      ]
    },
    {
      "children": [
        15
      ],
      "name": "BulletSpawn_09",
      "rotation": [
        4.928892294309151e-10,
        8.692602193605126e-12,
        1.0572138997577696e-10,
        1.0
      ],
      "scale": [
        1.0,
        1.0000001192092896,
        1.0
      ],
      "translation": [
        2.1715837306146568e-07,
        4.280304431915283,
        -0.02170231007039547
      ]
    },
    {
      "name": "BulletSpawn_end_035",
      "rotation": [
        -8.673617379884035e-18,
        1.3552527156068805e-20,
        8.673617379884035e-19,
        1.0
      ],
      "translation": [
        -6.938893903907228e-18,
        0.40613552927970886,
        0.0
      ]
    },
    {
      "children": [
        17
      ],
      "name": "Direction_010",
      "rotation": [
        -0.6839717626571655,
        0.1793951392173767,
        0.17939510941505432,
        0.6839718818664551
      ],
      "scale": [
        1.0000001192092896,
        0.9999999403953552,
        1.0
      ],
      "translation": [
        3.3547909339404214e-08,
        1.033961534500122,
        0.061000216752290726
      ]
    },
    {
      "name": "Direction_end_037",
      "rotation": [
        1.3234889800848443e-23,
        1.3855275260263214e-23,
        4.336808689942018e-19,
        1.0
      ],
      "translation": [
        0.0,
        0.27732741832733154,
        -4.440892098500626e-16
      ]
    },
    {
      "children": [
        19
      ],
      "name": "Wheel.L.2_011",
      "rotation": [
        -0.42577189207077026,
        0.42577189207077026,
        0.5645514130592346,
        0.5645514130592346
      ],
      "scale": [
        0.9999999403953552,
        1.0,
        1.0
      ],
      "translation": [
        -1.0584646463394165,
        -0.01504763774573803,
        -1.1836508512496948
      ]
    },
    {
      "name": "Wheel.L.2_end_027",
      "rotation": [
        -1.3877787807814457e-17,
        1.3877787807814457e-17,
        -2.7755575615628914e-17,
        1.0
      ],
      "translation": [
        2.220446049250313e-16,
        0.5020251274108887,
        -5.551115123125783e-17
      ]
    },
    {
      "children": [
        21
      ],
      "name": "Wheel.L.1_012",
      "rotation": [
        -0.42577189207077026,
        0.4257718622684479,
        0.5645514130592346,
        0.5645514130592346
      ],
      "scale": [
        0.9999998807907104,
        0.9999999403953552,
        1.0
      ],
      "translation": [
        -1.058464527130127,
        -0.015047453343868256,
        -1.8136504888534546
      ]
    },
    {
      "name": "Wheel.L.1_end_044",
      "rotation": [
        6.938893903907228e-18,
        -2.7755575615628914e-17,
        1.925929944387236e-34,
        1.0
      ],
      "translation": [
        0.0,
        0.5020251274108887,
        5.551115123125783e-17
      ]
    },
    {
      "children": [
        23
      ],
      "name": "Wheel.L.3_013",
      "rotation": [
        -0.42577189207077026,
        0.42577189207077026,
        0.5645514130592346,
        0.5645514130592346
      ],
      "scale": [
        0.9999999403953552,
        1.0,
        1.0
      ],
      "translation": [
        -1.0584646463394165,
        -0.015047851949930191,
        -0.5536507368087769
      ]
    },
    {
      "name": "Wheel.L.3_end_028",
      "rotation": [
        -1.3877787807814457e-17,
        1.3877787807814457e-17,
        -2.7755575615628914e-17,
        1.0
      ],
      "translation": [
        0.0,
        0.5020251274108887,
        -5.551115123125783e-17
      ]
    },
    {
      "children": [
        25
      ],
      "name": "Wheel.L.4_00",
      "rotation": [
        -0.42577189207077026,
        0.4257718622684479,
        0.5645515322685242,
        0.5645513534545898
      ],
      "scale": [
        0.9999999403953552,
        0.9999999403953552,
        1.0
      ],
      "translation": [
        -1.058464765548706,
        -0.01504803728312254,
        0.07634910196065903
      ]
    },
    {
      "name": "Wheel.L.4_end_039",
      "rotation": [
        -2.0816681711721685e-17,
        4.163336342344337e-17,
        5.551115123125783e-17,
        1.0
      ],
      "translation": [
        -5.551115123125783e-17,
        0.5020251274108887,
        5.551115123125783e-17
      ]
    },
    {
      "children": [
        27
      ],
      "name": "Wheel.L.5_014",
      "rotation": [
        -0.42577189207077026,
        0.4257718622684479,
        0.5645515322685242,
        0.5645513534545898
      ],
      "scale": [
        1.0000001192092896,
        1.0,
        1.0
      ],
      "translation": [
        -1.058464765548706,
        -0.015048221684992313,
        0.7063491344451904
      ]
    },
    {
      "name": "Wheel.L.5_end_040",
      "rotation": [
        0.0,
        2.7755575615628914e-17,
        0.0,
        1.0
      ],
      "translation": [
        -1.1102230246251565e-16,
        0.5020251274108887,
        0.0
      ]
    },
    {
      "children": [
        29
      ],
      "name": "Wheel.L.6_015",
      "rotation": [
        -0.4257718026638031,
        0.4257719814777374,
        0.5645514726638794,
        0.5645513534545898
      ],
      "scale": [
        0.9999999403953552,
        0.9999998807907104,
        1.0
      ],
      "translation": [
        -1.0584648847579956,
        -0.0150483762845397,
        1.3363490104675293
      ]
    },
    {
      "name": "Wheel.L.6_end_032",
      "rotation": [
        1.3877787807814457e-17,
        -5.551115123125783e-17,
        5.551115123125783e-17,
        1.0
      ],
      "translation": [
        0.0,
        0.5020251274108887,
        0.0
      ]
    },
    {
      "children": [
        31
      ],
      "name": "Wheel.R.2_016",
      "rotation": [
        -0.4257718622684479,
        -0.42577192187309265,
        -0.5645514130592346,
        0.5645514130592346
      ],
      "scale": [
        1.0,
        0.9999998807907104,
        1.0
      ],
      "translation": [
        1.058464765548706,
        -0.015047603286802769,
        -1.1836508512496948
      ]
    },
    {
      "name": "Wheel.R.2_end_043",
      "rotation": [
        -6.938893903907228e-18,
        -2.7755575615628914e-17,
        -1.925929944387236e-34,
        1.0
      ],
      "translation": [
        0.0,
        0.5020251274108887,
        6.245004513516506e-17
      ]
    },
    {
      "children": [
        33
      ],
      "name": "Wheel.R.1_017",
      "rotation": [
        -0.42577189207077026,
        -0.4257718622684479,
        -0.5645514130592346,
        0.5645514130592346
      ],
      "scale": [
        1.0,
        0.9999999403953552,
        1.0
      ],
      "translation": [
        1.058464765548706,
        -0.015047448687255383,
        -1.8136508464813232
      ]
    },
    {
      "name": "Wheel.R.1_end_045",
      "rotation": [
        1.3877787807814457e-17,
        -2.7755575615628914e-17,
        -8.326672684688674e-17,
        1.0
      ],
      "translation": [
        -2.220446049250313e-16,
        0.5020251274108887,
        5.551115123125783e-17
      ]
    },
    {
      "children": [
        35
      ],
      "name": "Wheel.R.3_018",
      "rotation": [
        -0.42577189207077026,
        -0.4257718622684479,
        -0.5645514130592346,
        0.5645514130592346
      ],
      "scale": [
        1.0,
        1.0000001192092896,
        1.0
      ],
      "translation": [
        1.058464765548706,
        -0.01504781749099493,
        -0.5536509156227112
      ]
    },
    {
      "name": "Wheel.R.3_end_034",
      "rotation": [
        -6.938893903907228e-18,
        -1.3877787807814457e-17,
        -2.7755575615628914e-17,
        1.0
      ],
      "translation": [
        0.0,
        0.5020251274108887,
        2.7755575615628914e-17
      ]
    },
    {
      "children": [
        37
      ],
      "name": "Wheel.R.4_019",
      "rotation": [
        -0.4257718622684479,
        -0.42577192187309265,
        -0.5645514130592346,
        0.5645514130592346
      ],
      "translation": [
        1.058464765548706,
        -0.015048031695187092,
        0.07634904235601425
      ]
    },
    {
      "name": "Wheel.R.4_end_029",
      "rotation": [
        2.0816681711721685e-17,
        0.0,
        0.0,
        1.0
      ],
      "translation": [
        0.0,
        0.5020251274108887,
        5.551115123125783e-17
      ]
    },
    {
      "children": [
        39
      ],
      "name": "Wheel.R.5_020",
      "rotation": [
        -0.42577189207077026,
        -0.4257719814777374,
        -0.5645514130592346,
        0.5645515322685242
      ],
      "scale": [
        0.9999999403953552,
        0.9999999403953552,
        1.0
      ],
      "translation": [
        1.058464765548706,
        -0.01504821702837944,
        0.7063490748405457
      ]
    },
    {
      "name": "Wheel.R.5_end_030",
      "rotation": [
        2.7755575615628914e-17,
        -1.3877787807814457e-17,
        3.851859888774472e-34,
        1.0
      ],
      "translation": [
        -1.1102230246251565e-16,
        0.5020251274108887,
        0.0
      ]
    },
    {
      "children": [
        41
      ],
      "name": "Wheel.R.6_021",
      "rotation": [
        -0.4257717728614807,
        -0.4257719814777374,
        -0.5645514130592346,
        0.5645514130592346
      ],
      "scale": [
        0.9999999403953552,
        0.9999999403953552,
        1.0
      ],
      "translation": [
        1.0584648847579956,
        -0.015048341825604439,
        1.3363491296768188
      ]
    },
    {
      "name": "Wheel.R.6_end_036",
      "rotation": [
        -1.3877787807814457e-17,
        -6.938893903907228e-17,
        8.326672684688674e-17,
        1.0
      ],
      "translation": [
        0.0,
        0.5020251274108887,
        0.0
      ]
    },
    {
      "children": [
        43
      ],
      "name": "Engine.L_022",
      "rotation": [
        -0.4257718026638031,
        0.4257717728614807,
        0.564551591873169,
        0.5645514130592346
      ],
      "translation": [
        -0.7378256320953369,
        1.3637906312942505,
        2.5158004746117513e-07
      ]
    },
    {
      "name": "Engine.L_end_042",
      "rotation": [
        -6.938893903907228e-18,
        -0.0,
        0.0,
        1.0
      ],
      "translation": [
        0.0,
        0.5020250678062439,
        0.0
      ]
    },
    {
      "children": [
        45
      ],
      "name": "Engine.R_023",
      "rotation": [
        -0.4257717728614807,
        -0.42577192187309265,
        -0.5645513534545898,
        0.5645515322685242
      ],
      "scale": [
        0.9999999403953552,
        0.9999999403953552,
        1.0
      ],
      "translation": [
        0.7378256916999817,
        1.3637906312942505,
        2.5158004746117513e-07
      ]
    },
    {
      "name": "Engine.R_end_041",
      "rotation": [
        1.3877787807814457e-17,
        -1.3877787807814457e-17,
        5.551115123125783e-17,
        1.0
      ],
      "translation": [
        -5.551115123125783e-17,
        0.5020250678062439,
        2.220446049250313e-16
      ]
    },
    {
      "children": [
        47
      ],
      "name": "Tracks_024",
      "rotation": [
        9.725620486733533e-08,
        7.4505792646561986e-09,
        -8.881785255792436e-16,
        1.0
      ],
      "scale": [
        0.9999999403953552,
        1.0,
        1.0
      ],
      "translation": [
        -4.4490458539492295e-10,
        -0.04520997405052185,
        -0.40604835748672485
      ]
    },
    {
      "name": "Tracks_end_038",
      "rotation": [
        3.970466940254533e-23,
        2.7755575615628914e-17,
        6.617444900424222e-24,
        1.0
      ],
      "translation": [
        0.0,
        0.4596465826034546,
        5.551115123125783e-17
      ]
    },
    {
      "children": [
        49
      ],
      "name": "Target_025",
      "rotation": [
        -1.3234889800848443e-23,
        -0.0,
        0.0,
        1.0
      ],
      "translation": [
        -3.019062688736085e-08,
        4.813989162445068,
        1.3854525089263916
      ]
    },
    {
      "name": "Target_end_031",
      "rotation": [
        -1.3234889800848443e-23,
        -0.0,
        0.0,
        1.0
      ],
      "translation": [
        0.0,
        0.3509969711303711,
        2.220446049250313e-16
      ]
    },
    {
      "children": [
        51
      ],
      "name": "Control_026",
      "rotation": [
        0.7071067094802856,
        5.549204172453757e-23,
        9.680551089338634e-16,
        0.7071068286895752
      ]
    },
    {
      "name": "Control_end_033",
      "rotation": [
        -5.293955920339377e-23,
        -0.0,
        9.117590276785781e-32,
        1.0
      ],
      "translation": [
        -8.338999242529937e-32,
        0.47872358560562134,
        -2.6469779601696886e-23
      ]
    },
    {
      "matrix": [
        100.0,
        -1.3099403331651743e-20,
        -2.540485524497197e-23,
        0.0,
        -2.5404855245062516e-23,
        -6.82215041271892e-13,
        -100.00000000000465,
        0.0,
        1.3099403331652352e-20,
        100.00000000000465,
        -6.82215041271892e-13,
        0.0,
        0.0,
        0.0,
        0.0,
        1.0
      ],
      "name": "Object_52"
    },
    {
      "mesh": 0,
      "name": "Object_53",
      "skin": 0
    }
  ],
  "samplers": [
    {
      "magFilter": 9729,
      "minFilter": 9987,
      "wrapS": 10497,
      "wrapT": 10497
    }
  ],
  "scene": 0,
  "scenes": [
    {
      "name": "Sketchfab_Scene",
      "nodes": [
        0
      ]
    }
  ],
  "skins": [
    {
      "inverseBindMatrices": 5,
      "joints": [
        5,
        6,
        7,
        8,
        9,
        10,
        11,
        12,
        13,
        14,
        15,
        16,
        17,
        18,
        19,
        20,
        21,
        22,
        23,
        24,
        25,
        26,
        27,
        28,
        29,
        30,
        31,
        32,
        33,
        34,
        35,
        36,
        37,
        38,
        39,
        40,
        41,
        42,
        43,
        44,
        45,
        46,
        47,
        48,
        49,
        50,
        51
      ],
      "skeleton": 5
    }
  ],
  "textures": [
    {
      "sampler": 0,
      "source": 0
    },
    {
      "sampler": 0,
      "source": 1
    },
    {
      "sampler": 0,
      "source": 2
    }
  ]
}
